M48
; DRILL file {KiCad 7.0.8} date 2024 January 16, Tuesday 20:57:39
; FORMAT={-:-/ absolute / inch / decimal}
; #@! TF.CreationDate,2024-01-16T20:57:39+00:00
; #@! TF.GenerationSoftware,Kicad,Pcbnew,7.0.8
; #@! TF.FileFunction,Plated,1,4,PTH
FMAT,2
INCH
; #@! TA.AperFunction,Plated,PTH,ViaDrill
T1C0.0157
; #@! TA.AperFunction,Plated,PTH,ComponentDrill
T2C0.0394
%
G90
G05
T1
X3.622Y-2.937
X3.6457Y-3.2559
X3.6535Y-3.0709
X3.6929Y-2.9331
X3.7394Y-3.0252
X3.7399Y-2.9701
X3.7448Y-3.2358
X3.7874Y-3.1457
X3.792Y-3.189
X3.8071Y-3.2441
X3.8346Y-2.9173
X3.8504Y-3.0354
X3.8858Y-3.3071
X3.9016Y-2.9173
X3.9055Y-3.0354
X3.9409Y-2.8071
X4.0276Y-2.878
T2
X3.5433Y-2.7953
X3.5433Y-2.874
X3.5433Y-2.9528
X3.5433Y-3.0315
X3.5433Y-3.1102
X3.5433Y-3.189
X3.5433Y-3.2677
X3.5433Y-3.3465
X4.1732Y-2.7953
X4.1732Y-2.874
X4.1732Y-2.9528
X4.1732Y-3.0315
X4.1732Y-3.1102
X4.1732Y-3.189
X4.1732Y-3.2677
X4.1732Y-3.3465
T0
M30
