%TF.GenerationSoftware,KiCad,Pcbnew,7.0.8*%
%TF.CreationDate,2024-01-16T20:57:43+00:00*%
%TF.ProjectId,RadioModule,52616469-6f4d-46f6-9475-6c652e6b6963,rev?*%
%TF.SameCoordinates,Original*%
%TF.FileFunction,Soldermask,Top*%
%TF.FilePolarity,Negative*%
%FSLAX46Y46*%
G04 Gerber Fmt 4.6, Leading zero omitted, Abs format (unit mm)*
G04 Created by KiCad (PCBNEW 7.0.8) date 2024-01-16 20:57:43*
%MOMM*%
%LPD*%
G01*
G04 APERTURE LIST*
G04 Aperture macros list*
%AMRoundRect*
0 Rectangle with rounded corners*
0 $1 Rounding radius*
0 $2 $3 $4 $5 $6 $7 $8 $9 X,Y pos of 4 corners*
0 Add a 4 corners polygon primitive as box body*
4,1,4,$2,$3,$4,$5,$6,$7,$8,$9,$2,$3,0*
0 Add four circle primitives for the rounded corners*
1,1,$1+$1,$2,$3*
1,1,$1+$1,$4,$5*
1,1,$1+$1,$6,$7*
1,1,$1+$1,$8,$9*
0 Add four rect primitives between the rounded corners*
20,1,$1+$1,$2,$3,$4,$5,0*
20,1,$1+$1,$4,$5,$6,$7,0*
20,1,$1+$1,$6,$7,$8,$9,0*
20,1,$1+$1,$8,$9,$2,$3,0*%
G04 Aperture macros list end*
%ADD10RoundRect,0.250000X0.750000X-0.250000X0.750000X0.250000X-0.750000X0.250000X-0.750000X-0.250000X0*%
%ADD11RoundRect,0.140000X0.170000X-0.140000X0.170000X0.140000X-0.170000X0.140000X-0.170000X-0.140000X0*%
%ADD12RoundRect,0.140000X-0.140000X-0.170000X0.140000X-0.170000X0.140000X0.170000X-0.140000X0.170000X0*%
%ADD13RoundRect,0.225000X-0.225000X-0.250000X0.225000X-0.250000X0.225000X0.250000X-0.225000X0.250000X0*%
%ADD14R,0.762000X0.254000*%
%ADD15R,0.254000X0.762000*%
%ADD16R,2.641600X2.641600*%
%ADD17RoundRect,0.147500X0.147500X0.172500X-0.147500X0.172500X-0.147500X-0.172500X0.147500X-0.172500X0*%
%ADD18RoundRect,0.140000X0.140000X0.170000X-0.140000X0.170000X-0.140000X-0.170000X0.140000X-0.170000X0*%
%ADD19RoundRect,0.147500X-0.147500X-0.172500X0.147500X-0.172500X0.147500X0.172500X-0.147500X0.172500X0*%
%ADD20R,0.800000X0.900000*%
%ADD21RoundRect,0.135000X-0.135000X-0.185000X0.135000X-0.185000X0.135000X0.185000X-0.135000X0.185000X0*%
G04 APERTURE END LIST*
D10*
%TO.C,J5*%
X90000000Y-79000000D03*
%TD*%
%TO.C,J7*%
X90000000Y-83000000D03*
%TD*%
%TO.C,J9*%
X106000000Y-71000000D03*
%TD*%
%TO.C,J3*%
X90000000Y-75000000D03*
%TD*%
D11*
%TO.C,C1*%
X95817000Y-74949999D03*
X95817000Y-73989999D03*
%TD*%
D12*
%TO.C,C10*%
X95540000Y-71300000D03*
X96500000Y-71300000D03*
%TD*%
D10*
%TO.C,J16*%
X106000000Y-85000000D03*
%TD*%
D13*
%TO.C,C6*%
X95825000Y-83900000D03*
X97375000Y-83900000D03*
%TD*%
D12*
%TO.C,C4*%
X93140000Y-77000000D03*
X94100000Y-77000000D03*
%TD*%
%TO.C,C7*%
X99920000Y-73100000D03*
X100880000Y-73100000D03*
%TD*%
%TO.C,C3*%
X94100000Y-80923001D03*
X95060000Y-80923001D03*
%TD*%
D14*
%TO.C,U1*%
X96500000Y-75899999D03*
X96500000Y-76399998D03*
X96500000Y-76899999D03*
X96500000Y-77399999D03*
X96500000Y-77900000D03*
X96500000Y-78399999D03*
D15*
X97218500Y-79118499D03*
X97718499Y-79118499D03*
X98218500Y-79118499D03*
X98718500Y-79118499D03*
X99218501Y-79118499D03*
X99718500Y-79118499D03*
D14*
X100437000Y-78399999D03*
X100437000Y-77900000D03*
X100437000Y-77399999D03*
X100437000Y-76899999D03*
X100437000Y-76399998D03*
X100437000Y-75899999D03*
D15*
X99718500Y-75181499D03*
X99218501Y-75181499D03*
X98718500Y-75181499D03*
X98218500Y-75181499D03*
X97718499Y-75181499D03*
X97218500Y-75181499D03*
D16*
X98468500Y-77149999D03*
%TD*%
D17*
%TO.C,L3*%
X96500000Y-72500000D03*
X95530000Y-72500000D03*
%TD*%
D10*
%TO.C,J6*%
X90000000Y-81000000D03*
%TD*%
D18*
%TO.C,C11*%
X94380000Y-73600000D03*
X93420000Y-73600000D03*
%TD*%
D10*
%TO.C,J12*%
X106000000Y-77000000D03*
%TD*%
D17*
%TO.C,L2*%
X98585000Y-72500000D03*
X97615000Y-72500000D03*
%TD*%
D18*
%TO.C,C2*%
X93780000Y-75489999D03*
X92820000Y-75489999D03*
%TD*%
D10*
%TO.C,J2*%
X90000000Y-73000000D03*
%TD*%
%TO.C,J11*%
X106000000Y-75000000D03*
%TD*%
%TO.C,J15*%
X106000000Y-83000000D03*
%TD*%
D18*
%TO.C,C5*%
X98080000Y-81500000D03*
X97120000Y-81500000D03*
%TD*%
D10*
%TO.C,J4*%
X90000000Y-77000000D03*
%TD*%
%TO.C,J14*%
X106000000Y-81000000D03*
%TD*%
%TO.C,J1*%
X90000000Y-71000000D03*
%TD*%
%TO.C,J8*%
X90000000Y-85000000D03*
%TD*%
D19*
%TO.C,L1*%
X99847000Y-81489999D03*
X100817000Y-81489999D03*
%TD*%
D10*
%TO.C,J10*%
X106000000Y-73000000D03*
%TD*%
D12*
%TO.C,C9*%
X93420000Y-72500000D03*
X94380000Y-72500000D03*
%TD*%
D10*
%TO.C,J13*%
X106000000Y-79000000D03*
%TD*%
D20*
%TO.C,Y1*%
X95067000Y-79763000D03*
X95067000Y-78363000D03*
X93967000Y-78363000D03*
X93967000Y-79763000D03*
%TD*%
D21*
%TO.C,R1*%
X97057000Y-80489999D03*
X98077000Y-80489999D03*
%TD*%
D12*
%TO.C,C8*%
X97600000Y-71300000D03*
X98560000Y-71300000D03*
%TD*%
M02*
