%TF.GenerationSoftware,KiCad,Pcbnew,7.0.8*%
%TF.CreationDate,2024-01-16T20:57:43+00:00*%
%TF.ProjectId,RadioModule,52616469-6f4d-46f6-9475-6c652e6b6963,rev?*%
%TF.SameCoordinates,Original*%
%TF.FileFunction,Legend,Top*%
%TF.FilePolarity,Positive*%
%FSLAX46Y46*%
G04 Gerber Fmt 4.6, Leading zero omitted, Abs format (unit mm)*
G04 Created by KiCad (PCBNEW 7.0.8) date 2024-01-16 20:57:43*
%MOMM*%
%LPD*%
G01*
G04 APERTURE LIST*
%ADD10C,0.125000*%
%ADD11C,0.150000*%
%ADD12C,0.120000*%
%ADD13C,0.152400*%
G04 APERTURE END LIST*
D10*
X104464690Y-77073002D02*
X104488500Y-77096811D01*
X104488500Y-77096811D02*
X104512309Y-77168240D01*
X104512309Y-77168240D02*
X104512309Y-77215859D01*
X104512309Y-77215859D02*
X104488500Y-77287287D01*
X104488500Y-77287287D02*
X104440880Y-77334906D01*
X104440880Y-77334906D02*
X104393261Y-77358716D01*
X104393261Y-77358716D02*
X104298023Y-77382525D01*
X104298023Y-77382525D02*
X104226595Y-77382525D01*
X104226595Y-77382525D02*
X104131357Y-77358716D01*
X104131357Y-77358716D02*
X104083738Y-77334906D01*
X104083738Y-77334906D02*
X104036119Y-77287287D01*
X104036119Y-77287287D02*
X104012309Y-77215859D01*
X104012309Y-77215859D02*
X104012309Y-77168240D01*
X104012309Y-77168240D02*
X104036119Y-77096811D01*
X104036119Y-77096811D02*
X104059928Y-77073002D01*
X104488500Y-76882525D02*
X104512309Y-76811097D01*
X104512309Y-76811097D02*
X104512309Y-76692049D01*
X104512309Y-76692049D02*
X104488500Y-76644430D01*
X104488500Y-76644430D02*
X104464690Y-76620621D01*
X104464690Y-76620621D02*
X104417071Y-76596811D01*
X104417071Y-76596811D02*
X104369452Y-76596811D01*
X104369452Y-76596811D02*
X104321833Y-76620621D01*
X104321833Y-76620621D02*
X104298023Y-76644430D01*
X104298023Y-76644430D02*
X104274214Y-76692049D01*
X104274214Y-76692049D02*
X104250404Y-76787287D01*
X104250404Y-76787287D02*
X104226595Y-76834906D01*
X104226595Y-76834906D02*
X104202785Y-76858716D01*
X104202785Y-76858716D02*
X104155166Y-76882525D01*
X104155166Y-76882525D02*
X104107547Y-76882525D01*
X104107547Y-76882525D02*
X104059928Y-76858716D01*
X104059928Y-76858716D02*
X104036119Y-76834906D01*
X104036119Y-76834906D02*
X104012309Y-76787287D01*
X104012309Y-76787287D02*
X104012309Y-76668240D01*
X104012309Y-76668240D02*
X104036119Y-76596811D01*
X104492309Y-75203002D02*
X104254214Y-75369668D01*
X104492309Y-75488716D02*
X103992309Y-75488716D01*
X103992309Y-75488716D02*
X103992309Y-75298240D01*
X103992309Y-75298240D02*
X104016119Y-75250621D01*
X104016119Y-75250621D02*
X104039928Y-75226811D01*
X104039928Y-75226811D02*
X104087547Y-75203002D01*
X104087547Y-75203002D02*
X104158976Y-75203002D01*
X104158976Y-75203002D02*
X104206595Y-75226811D01*
X104206595Y-75226811D02*
X104230404Y-75250621D01*
X104230404Y-75250621D02*
X104254214Y-75298240D01*
X104254214Y-75298240D02*
X104254214Y-75488716D01*
X104468500Y-75012525D02*
X104492309Y-74941097D01*
X104492309Y-74941097D02*
X104492309Y-74822049D01*
X104492309Y-74822049D02*
X104468500Y-74774430D01*
X104468500Y-74774430D02*
X104444690Y-74750621D01*
X104444690Y-74750621D02*
X104397071Y-74726811D01*
X104397071Y-74726811D02*
X104349452Y-74726811D01*
X104349452Y-74726811D02*
X104301833Y-74750621D01*
X104301833Y-74750621D02*
X104278023Y-74774430D01*
X104278023Y-74774430D02*
X104254214Y-74822049D01*
X104254214Y-74822049D02*
X104230404Y-74917287D01*
X104230404Y-74917287D02*
X104206595Y-74964906D01*
X104206595Y-74964906D02*
X104182785Y-74988716D01*
X104182785Y-74988716D02*
X104135166Y-75012525D01*
X104135166Y-75012525D02*
X104087547Y-75012525D01*
X104087547Y-75012525D02*
X104039928Y-74988716D01*
X104039928Y-74988716D02*
X104016119Y-74964906D01*
X104016119Y-74964906D02*
X103992309Y-74917287D01*
X103992309Y-74917287D02*
X103992309Y-74798240D01*
X103992309Y-74798240D02*
X104016119Y-74726811D01*
X103992309Y-74583954D02*
X103992309Y-74298240D01*
X104492309Y-74441097D02*
X103992309Y-74441097D01*
X91953880Y-72633188D02*
X91977690Y-72585569D01*
X91977690Y-72585569D02*
X91977690Y-72514140D01*
X91977690Y-72514140D02*
X91953880Y-72442712D01*
X91953880Y-72442712D02*
X91906261Y-72395093D01*
X91906261Y-72395093D02*
X91858642Y-72371283D01*
X91858642Y-72371283D02*
X91763404Y-72347474D01*
X91763404Y-72347474D02*
X91691976Y-72347474D01*
X91691976Y-72347474D02*
X91596738Y-72371283D01*
X91596738Y-72371283D02*
X91549119Y-72395093D01*
X91549119Y-72395093D02*
X91501500Y-72442712D01*
X91501500Y-72442712D02*
X91477690Y-72514140D01*
X91477690Y-72514140D02*
X91477690Y-72561759D01*
X91477690Y-72561759D02*
X91501500Y-72633188D01*
X91501500Y-72633188D02*
X91525309Y-72656997D01*
X91525309Y-72656997D02*
X91691976Y-72656997D01*
X91691976Y-72656997D02*
X91691976Y-72561759D01*
X91477690Y-72871283D02*
X91977690Y-72871283D01*
X91977690Y-72871283D02*
X91477690Y-73156997D01*
X91477690Y-73156997D02*
X91977690Y-73156997D01*
X91477690Y-73395093D02*
X91977690Y-73395093D01*
X91977690Y-73395093D02*
X91977690Y-73514141D01*
X91977690Y-73514141D02*
X91953880Y-73585569D01*
X91953880Y-73585569D02*
X91906261Y-73633188D01*
X91906261Y-73633188D02*
X91858642Y-73656998D01*
X91858642Y-73656998D02*
X91763404Y-73680807D01*
X91763404Y-73680807D02*
X91691976Y-73680807D01*
X91691976Y-73680807D02*
X91596738Y-73656998D01*
X91596738Y-73656998D02*
X91549119Y-73633188D01*
X91549119Y-73633188D02*
X91501500Y-73585569D01*
X91501500Y-73585569D02*
X91477690Y-73514141D01*
X91477690Y-73514141D02*
X91477690Y-73395093D01*
X103966119Y-85326811D02*
X103942309Y-85374430D01*
X103942309Y-85374430D02*
X103942309Y-85445859D01*
X103942309Y-85445859D02*
X103966119Y-85517287D01*
X103966119Y-85517287D02*
X104013738Y-85564906D01*
X104013738Y-85564906D02*
X104061357Y-85588716D01*
X104061357Y-85588716D02*
X104156595Y-85612525D01*
X104156595Y-85612525D02*
X104228023Y-85612525D01*
X104228023Y-85612525D02*
X104323261Y-85588716D01*
X104323261Y-85588716D02*
X104370880Y-85564906D01*
X104370880Y-85564906D02*
X104418500Y-85517287D01*
X104418500Y-85517287D02*
X104442309Y-85445859D01*
X104442309Y-85445859D02*
X104442309Y-85398240D01*
X104442309Y-85398240D02*
X104418500Y-85326811D01*
X104418500Y-85326811D02*
X104394690Y-85303002D01*
X104394690Y-85303002D02*
X104228023Y-85303002D01*
X104228023Y-85303002D02*
X104228023Y-85398240D01*
X104442309Y-85088716D02*
X103942309Y-85088716D01*
X103942309Y-85088716D02*
X104442309Y-84803002D01*
X104442309Y-84803002D02*
X103942309Y-84803002D01*
X104442309Y-84564906D02*
X103942309Y-84564906D01*
X103942309Y-84564906D02*
X103942309Y-84445858D01*
X103942309Y-84445858D02*
X103966119Y-84374430D01*
X103966119Y-84374430D02*
X104013738Y-84326811D01*
X104013738Y-84326811D02*
X104061357Y-84303001D01*
X104061357Y-84303001D02*
X104156595Y-84279192D01*
X104156595Y-84279192D02*
X104228023Y-84279192D01*
X104228023Y-84279192D02*
X104323261Y-84303001D01*
X104323261Y-84303001D02*
X104370880Y-84326811D01*
X104370880Y-84326811D02*
X104418500Y-84374430D01*
X104418500Y-84374430D02*
X104442309Y-84445858D01*
X104442309Y-84445858D02*
X104442309Y-84564906D01*
X91977690Y-78423664D02*
X91977690Y-78733188D01*
X91977690Y-78733188D02*
X91787214Y-78566521D01*
X91787214Y-78566521D02*
X91787214Y-78637950D01*
X91787214Y-78637950D02*
X91763404Y-78685569D01*
X91763404Y-78685569D02*
X91739595Y-78709378D01*
X91739595Y-78709378D02*
X91691976Y-78733188D01*
X91691976Y-78733188D02*
X91572928Y-78733188D01*
X91572928Y-78733188D02*
X91525309Y-78709378D01*
X91525309Y-78709378D02*
X91501500Y-78685569D01*
X91501500Y-78685569D02*
X91477690Y-78637950D01*
X91477690Y-78637950D02*
X91477690Y-78495093D01*
X91477690Y-78495093D02*
X91501500Y-78447474D01*
X91501500Y-78447474D02*
X91525309Y-78423664D01*
X91977690Y-78876045D02*
X91477690Y-79042711D01*
X91477690Y-79042711D02*
X91977690Y-79209378D01*
X91977690Y-79328425D02*
X91977690Y-79637949D01*
X91977690Y-79637949D02*
X91787214Y-79471282D01*
X91787214Y-79471282D02*
X91787214Y-79542711D01*
X91787214Y-79542711D02*
X91763404Y-79590330D01*
X91763404Y-79590330D02*
X91739595Y-79614139D01*
X91739595Y-79614139D02*
X91691976Y-79637949D01*
X91691976Y-79637949D02*
X91572928Y-79637949D01*
X91572928Y-79637949D02*
X91525309Y-79614139D01*
X91525309Y-79614139D02*
X91501500Y-79590330D01*
X91501500Y-79590330D02*
X91477690Y-79542711D01*
X91477690Y-79542711D02*
X91477690Y-79399854D01*
X91477690Y-79399854D02*
X91501500Y-79352235D01*
X91501500Y-79352235D02*
X91525309Y-79328425D01*
X104512309Y-83765714D02*
X104012309Y-83765714D01*
X104012309Y-83765714D02*
X104369452Y-83599047D01*
X104369452Y-83599047D02*
X104012309Y-83432381D01*
X104012309Y-83432381D02*
X104512309Y-83432381D01*
X104512309Y-83194285D02*
X104012309Y-83194285D01*
X104488500Y-82979999D02*
X104512309Y-82908571D01*
X104512309Y-82908571D02*
X104512309Y-82789523D01*
X104512309Y-82789523D02*
X104488500Y-82741904D01*
X104488500Y-82741904D02*
X104464690Y-82718095D01*
X104464690Y-82718095D02*
X104417071Y-82694285D01*
X104417071Y-82694285D02*
X104369452Y-82694285D01*
X104369452Y-82694285D02*
X104321833Y-82718095D01*
X104321833Y-82718095D02*
X104298023Y-82741904D01*
X104298023Y-82741904D02*
X104274214Y-82789523D01*
X104274214Y-82789523D02*
X104250404Y-82884761D01*
X104250404Y-82884761D02*
X104226595Y-82932380D01*
X104226595Y-82932380D02*
X104202785Y-82956190D01*
X104202785Y-82956190D02*
X104155166Y-82979999D01*
X104155166Y-82979999D02*
X104107547Y-82979999D01*
X104107547Y-82979999D02*
X104059928Y-82956190D01*
X104059928Y-82956190D02*
X104036119Y-82932380D01*
X104036119Y-82932380D02*
X104012309Y-82884761D01*
X104012309Y-82884761D02*
X104012309Y-82765714D01*
X104012309Y-82765714D02*
X104036119Y-82694285D01*
X104012309Y-82384762D02*
X104012309Y-82289524D01*
X104012309Y-82289524D02*
X104036119Y-82241905D01*
X104036119Y-82241905D02*
X104083738Y-82194286D01*
X104083738Y-82194286D02*
X104178976Y-82170476D01*
X104178976Y-82170476D02*
X104345642Y-82170476D01*
X104345642Y-82170476D02*
X104440880Y-82194286D01*
X104440880Y-82194286D02*
X104488500Y-82241905D01*
X104488500Y-82241905D02*
X104512309Y-82289524D01*
X104512309Y-82289524D02*
X104512309Y-82384762D01*
X104512309Y-82384762D02*
X104488500Y-82432381D01*
X104488500Y-82432381D02*
X104440880Y-82480000D01*
X104440880Y-82480000D02*
X104345642Y-82503809D01*
X104345642Y-82503809D02*
X104178976Y-82503809D01*
X104178976Y-82503809D02*
X104083738Y-82480000D01*
X104083738Y-82480000D02*
X104036119Y-82432381D01*
X104036119Y-82432381D02*
X104012309Y-82384762D01*
X91570547Y-70467474D02*
X91570547Y-70705569D01*
X91427690Y-70419855D02*
X91927690Y-70586521D01*
X91927690Y-70586521D02*
X91427690Y-70753188D01*
X91427690Y-70919854D02*
X91927690Y-70919854D01*
X91927690Y-70919854D02*
X91427690Y-71205568D01*
X91427690Y-71205568D02*
X91927690Y-71205568D01*
X91927690Y-71372236D02*
X91927690Y-71657950D01*
X91427690Y-71515093D02*
X91927690Y-71515093D01*
X104458500Y-79612525D02*
X104482309Y-79541097D01*
X104482309Y-79541097D02*
X104482309Y-79422049D01*
X104482309Y-79422049D02*
X104458500Y-79374430D01*
X104458500Y-79374430D02*
X104434690Y-79350621D01*
X104434690Y-79350621D02*
X104387071Y-79326811D01*
X104387071Y-79326811D02*
X104339452Y-79326811D01*
X104339452Y-79326811D02*
X104291833Y-79350621D01*
X104291833Y-79350621D02*
X104268023Y-79374430D01*
X104268023Y-79374430D02*
X104244214Y-79422049D01*
X104244214Y-79422049D02*
X104220404Y-79517287D01*
X104220404Y-79517287D02*
X104196595Y-79564906D01*
X104196595Y-79564906D02*
X104172785Y-79588716D01*
X104172785Y-79588716D02*
X104125166Y-79612525D01*
X104125166Y-79612525D02*
X104077547Y-79612525D01*
X104077547Y-79612525D02*
X104029928Y-79588716D01*
X104029928Y-79588716D02*
X104006119Y-79564906D01*
X104006119Y-79564906D02*
X103982309Y-79517287D01*
X103982309Y-79517287D02*
X103982309Y-79398240D01*
X103982309Y-79398240D02*
X104006119Y-79326811D01*
X104434690Y-78826812D02*
X104458500Y-78850621D01*
X104458500Y-78850621D02*
X104482309Y-78922050D01*
X104482309Y-78922050D02*
X104482309Y-78969669D01*
X104482309Y-78969669D02*
X104458500Y-79041097D01*
X104458500Y-79041097D02*
X104410880Y-79088716D01*
X104410880Y-79088716D02*
X104363261Y-79112526D01*
X104363261Y-79112526D02*
X104268023Y-79136335D01*
X104268023Y-79136335D02*
X104196595Y-79136335D01*
X104196595Y-79136335D02*
X104101357Y-79112526D01*
X104101357Y-79112526D02*
X104053738Y-79088716D01*
X104053738Y-79088716D02*
X104006119Y-79041097D01*
X104006119Y-79041097D02*
X103982309Y-78969669D01*
X103982309Y-78969669D02*
X103982309Y-78922050D01*
X103982309Y-78922050D02*
X104006119Y-78850621D01*
X104006119Y-78850621D02*
X104029928Y-78826812D01*
X104482309Y-78612526D02*
X103982309Y-78612526D01*
X104482309Y-78326812D02*
X104196595Y-78541097D01*
X103982309Y-78326812D02*
X104268023Y-78612526D01*
X104492309Y-81775714D02*
X103992309Y-81775714D01*
X103992309Y-81775714D02*
X104349452Y-81609047D01*
X104349452Y-81609047D02*
X103992309Y-81442381D01*
X103992309Y-81442381D02*
X104492309Y-81442381D01*
X103992309Y-81109047D02*
X103992309Y-81013809D01*
X103992309Y-81013809D02*
X104016119Y-80966190D01*
X104016119Y-80966190D02*
X104063738Y-80918571D01*
X104063738Y-80918571D02*
X104158976Y-80894761D01*
X104158976Y-80894761D02*
X104325642Y-80894761D01*
X104325642Y-80894761D02*
X104420880Y-80918571D01*
X104420880Y-80918571D02*
X104468500Y-80966190D01*
X104468500Y-80966190D02*
X104492309Y-81013809D01*
X104492309Y-81013809D02*
X104492309Y-81109047D01*
X104492309Y-81109047D02*
X104468500Y-81156666D01*
X104468500Y-81156666D02*
X104420880Y-81204285D01*
X104420880Y-81204285D02*
X104325642Y-81228094D01*
X104325642Y-81228094D02*
X104158976Y-81228094D01*
X104158976Y-81228094D02*
X104063738Y-81204285D01*
X104063738Y-81204285D02*
X104016119Y-81156666D01*
X104016119Y-81156666D02*
X103992309Y-81109047D01*
X104468500Y-80704284D02*
X104492309Y-80632856D01*
X104492309Y-80632856D02*
X104492309Y-80513808D01*
X104492309Y-80513808D02*
X104468500Y-80466189D01*
X104468500Y-80466189D02*
X104444690Y-80442380D01*
X104444690Y-80442380D02*
X104397071Y-80418570D01*
X104397071Y-80418570D02*
X104349452Y-80418570D01*
X104349452Y-80418570D02*
X104301833Y-80442380D01*
X104301833Y-80442380D02*
X104278023Y-80466189D01*
X104278023Y-80466189D02*
X104254214Y-80513808D01*
X104254214Y-80513808D02*
X104230404Y-80609046D01*
X104230404Y-80609046D02*
X104206595Y-80656665D01*
X104206595Y-80656665D02*
X104182785Y-80680475D01*
X104182785Y-80680475D02*
X104135166Y-80704284D01*
X104135166Y-80704284D02*
X104087547Y-80704284D01*
X104087547Y-80704284D02*
X104039928Y-80680475D01*
X104039928Y-80680475D02*
X104016119Y-80656665D01*
X104016119Y-80656665D02*
X103992309Y-80609046D01*
X103992309Y-80609046D02*
X103992309Y-80489999D01*
X103992309Y-80489999D02*
X104016119Y-80418570D01*
X104492309Y-80204285D02*
X103992309Y-80204285D01*
X91527690Y-80591283D02*
X92027690Y-80591283D01*
X91527690Y-80829378D02*
X92027690Y-80829378D01*
X92027690Y-80829378D02*
X91527690Y-81115092D01*
X91527690Y-81115092D02*
X92027690Y-81115092D01*
X92027690Y-81281760D02*
X92027690Y-81567474D01*
X91527690Y-81424617D02*
X92027690Y-81424617D01*
X103966119Y-71316811D02*
X103942309Y-71364430D01*
X103942309Y-71364430D02*
X103942309Y-71435859D01*
X103942309Y-71435859D02*
X103966119Y-71507287D01*
X103966119Y-71507287D02*
X104013738Y-71554906D01*
X104013738Y-71554906D02*
X104061357Y-71578716D01*
X104061357Y-71578716D02*
X104156595Y-71602525D01*
X104156595Y-71602525D02*
X104228023Y-71602525D01*
X104228023Y-71602525D02*
X104323261Y-71578716D01*
X104323261Y-71578716D02*
X104370880Y-71554906D01*
X104370880Y-71554906D02*
X104418500Y-71507287D01*
X104418500Y-71507287D02*
X104442309Y-71435859D01*
X104442309Y-71435859D02*
X104442309Y-71388240D01*
X104442309Y-71388240D02*
X104418500Y-71316811D01*
X104418500Y-71316811D02*
X104394690Y-71293002D01*
X104394690Y-71293002D02*
X104228023Y-71293002D01*
X104228023Y-71293002D02*
X104228023Y-71388240D01*
X104442309Y-71078716D02*
X103942309Y-71078716D01*
X103942309Y-71078716D02*
X104442309Y-70793002D01*
X104442309Y-70793002D02*
X103942309Y-70793002D01*
X104442309Y-70554906D02*
X103942309Y-70554906D01*
X103942309Y-70554906D02*
X103942309Y-70435858D01*
X103942309Y-70435858D02*
X103966119Y-70364430D01*
X103966119Y-70364430D02*
X104013738Y-70316811D01*
X104013738Y-70316811D02*
X104061357Y-70293001D01*
X104061357Y-70293001D02*
X104156595Y-70269192D01*
X104156595Y-70269192D02*
X104228023Y-70269192D01*
X104228023Y-70269192D02*
X104323261Y-70293001D01*
X104323261Y-70293001D02*
X104370880Y-70316811D01*
X104370880Y-70316811D02*
X104418500Y-70364430D01*
X104418500Y-70364430D02*
X104442309Y-70435858D01*
X104442309Y-70435858D02*
X104442309Y-70554906D01*
X95210666Y-74456666D02*
X95244000Y-74489999D01*
X95244000Y-74489999D02*
X95277333Y-74589999D01*
X95277333Y-74589999D02*
X95277333Y-74656666D01*
X95277333Y-74656666D02*
X95244000Y-74756666D01*
X95244000Y-74756666D02*
X95177333Y-74823333D01*
X95177333Y-74823333D02*
X95110666Y-74856666D01*
X95110666Y-74856666D02*
X94977333Y-74889999D01*
X94977333Y-74889999D02*
X94877333Y-74889999D01*
X94877333Y-74889999D02*
X94744000Y-74856666D01*
X94744000Y-74856666D02*
X94677333Y-74823333D01*
X94677333Y-74823333D02*
X94610666Y-74756666D01*
X94610666Y-74756666D02*
X94577333Y-74656666D01*
X94577333Y-74656666D02*
X94577333Y-74589999D01*
X94577333Y-74589999D02*
X94610666Y-74489999D01*
X94610666Y-74489999D02*
X94644000Y-74456666D01*
X95277333Y-73789999D02*
X95277333Y-74189999D01*
X95277333Y-73989999D02*
X94577333Y-73989999D01*
X94577333Y-73989999D02*
X94677333Y-74056666D01*
X94677333Y-74056666D02*
X94744000Y-74123333D01*
X94744000Y-74123333D02*
X94777333Y-74189999D01*
D11*
X95589999Y-70799366D02*
X95556666Y-70832700D01*
X95556666Y-70832700D02*
X95456666Y-70866033D01*
X95456666Y-70866033D02*
X95389999Y-70866033D01*
X95389999Y-70866033D02*
X95289999Y-70832700D01*
X95289999Y-70832700D02*
X95223333Y-70766033D01*
X95223333Y-70766033D02*
X95189999Y-70699366D01*
X95189999Y-70699366D02*
X95156666Y-70566033D01*
X95156666Y-70566033D02*
X95156666Y-70466033D01*
X95156666Y-70466033D02*
X95189999Y-70332700D01*
X95189999Y-70332700D02*
X95223333Y-70266033D01*
X95223333Y-70266033D02*
X95289999Y-70199366D01*
X95289999Y-70199366D02*
X95389999Y-70166033D01*
X95389999Y-70166033D02*
X95456666Y-70166033D01*
X95456666Y-70166033D02*
X95556666Y-70199366D01*
X95556666Y-70199366D02*
X95589999Y-70232700D01*
X96256666Y-70866033D02*
X95856666Y-70866033D01*
X96056666Y-70866033D02*
X96056666Y-70166033D01*
X96056666Y-70166033D02*
X95989999Y-70266033D01*
X95989999Y-70266033D02*
X95923333Y-70332700D01*
X95923333Y-70332700D02*
X95856666Y-70366033D01*
X96690000Y-70166033D02*
X96756666Y-70166033D01*
X96756666Y-70166033D02*
X96823333Y-70199366D01*
X96823333Y-70199366D02*
X96856666Y-70232700D01*
X96856666Y-70232700D02*
X96890000Y-70299366D01*
X96890000Y-70299366D02*
X96923333Y-70432700D01*
X96923333Y-70432700D02*
X96923333Y-70599366D01*
X96923333Y-70599366D02*
X96890000Y-70732700D01*
X96890000Y-70732700D02*
X96856666Y-70799366D01*
X96856666Y-70799366D02*
X96823333Y-70832700D01*
X96823333Y-70832700D02*
X96756666Y-70866033D01*
X96756666Y-70866033D02*
X96690000Y-70866033D01*
X96690000Y-70866033D02*
X96623333Y-70832700D01*
X96623333Y-70832700D02*
X96590000Y-70799366D01*
X96590000Y-70799366D02*
X96556666Y-70732700D01*
X96556666Y-70732700D02*
X96523333Y-70599366D01*
X96523333Y-70599366D02*
X96523333Y-70432700D01*
X96523333Y-70432700D02*
X96556666Y-70299366D01*
X96556666Y-70299366D02*
X96590000Y-70232700D01*
X96590000Y-70232700D02*
X96623333Y-70199366D01*
X96623333Y-70199366D02*
X96690000Y-70166033D01*
X96463333Y-85279366D02*
X96430000Y-85312700D01*
X96430000Y-85312700D02*
X96330000Y-85346033D01*
X96330000Y-85346033D02*
X96263333Y-85346033D01*
X96263333Y-85346033D02*
X96163333Y-85312700D01*
X96163333Y-85312700D02*
X96096667Y-85246033D01*
X96096667Y-85246033D02*
X96063333Y-85179366D01*
X96063333Y-85179366D02*
X96030000Y-85046033D01*
X96030000Y-85046033D02*
X96030000Y-84946033D01*
X96030000Y-84946033D02*
X96063333Y-84812700D01*
X96063333Y-84812700D02*
X96096667Y-84746033D01*
X96096667Y-84746033D02*
X96163333Y-84679366D01*
X96163333Y-84679366D02*
X96263333Y-84646033D01*
X96263333Y-84646033D02*
X96330000Y-84646033D01*
X96330000Y-84646033D02*
X96430000Y-84679366D01*
X96430000Y-84679366D02*
X96463333Y-84712700D01*
X97063333Y-84646033D02*
X96930000Y-84646033D01*
X96930000Y-84646033D02*
X96863333Y-84679366D01*
X96863333Y-84679366D02*
X96830000Y-84712700D01*
X96830000Y-84712700D02*
X96763333Y-84812700D01*
X96763333Y-84812700D02*
X96730000Y-84946033D01*
X96730000Y-84946033D02*
X96730000Y-85212700D01*
X96730000Y-85212700D02*
X96763333Y-85279366D01*
X96763333Y-85279366D02*
X96796667Y-85312700D01*
X96796667Y-85312700D02*
X96863333Y-85346033D01*
X96863333Y-85346033D02*
X96996667Y-85346033D01*
X96996667Y-85346033D02*
X97063333Y-85312700D01*
X97063333Y-85312700D02*
X97096667Y-85279366D01*
X97096667Y-85279366D02*
X97130000Y-85212700D01*
X97130000Y-85212700D02*
X97130000Y-85046033D01*
X97130000Y-85046033D02*
X97096667Y-84979366D01*
X97096667Y-84979366D02*
X97063333Y-84946033D01*
X97063333Y-84946033D02*
X96996667Y-84912700D01*
X96996667Y-84912700D02*
X96863333Y-84912700D01*
X96863333Y-84912700D02*
X96796667Y-84946033D01*
X96796667Y-84946033D02*
X96763333Y-84979366D01*
X96763333Y-84979366D02*
X96730000Y-85046033D01*
X93493333Y-76499366D02*
X93460000Y-76532700D01*
X93460000Y-76532700D02*
X93360000Y-76566033D01*
X93360000Y-76566033D02*
X93293333Y-76566033D01*
X93293333Y-76566033D02*
X93193333Y-76532700D01*
X93193333Y-76532700D02*
X93126667Y-76466033D01*
X93126667Y-76466033D02*
X93093333Y-76399366D01*
X93093333Y-76399366D02*
X93060000Y-76266033D01*
X93060000Y-76266033D02*
X93060000Y-76166033D01*
X93060000Y-76166033D02*
X93093333Y-76032700D01*
X93093333Y-76032700D02*
X93126667Y-75966033D01*
X93126667Y-75966033D02*
X93193333Y-75899366D01*
X93193333Y-75899366D02*
X93293333Y-75866033D01*
X93293333Y-75866033D02*
X93360000Y-75866033D01*
X93360000Y-75866033D02*
X93460000Y-75899366D01*
X93460000Y-75899366D02*
X93493333Y-75932700D01*
X94093333Y-76099366D02*
X94093333Y-76566033D01*
X93926667Y-75832700D02*
X93760000Y-76332700D01*
X93760000Y-76332700D02*
X94193333Y-76332700D01*
X100283333Y-72449366D02*
X100250000Y-72482700D01*
X100250000Y-72482700D02*
X100150000Y-72516033D01*
X100150000Y-72516033D02*
X100083333Y-72516033D01*
X100083333Y-72516033D02*
X99983333Y-72482700D01*
X99983333Y-72482700D02*
X99916667Y-72416033D01*
X99916667Y-72416033D02*
X99883333Y-72349366D01*
X99883333Y-72349366D02*
X99850000Y-72216033D01*
X99850000Y-72216033D02*
X99850000Y-72116033D01*
X99850000Y-72116033D02*
X99883333Y-71982700D01*
X99883333Y-71982700D02*
X99916667Y-71916033D01*
X99916667Y-71916033D02*
X99983333Y-71849366D01*
X99983333Y-71849366D02*
X100083333Y-71816033D01*
X100083333Y-71816033D02*
X100150000Y-71816033D01*
X100150000Y-71816033D02*
X100250000Y-71849366D01*
X100250000Y-71849366D02*
X100283333Y-71882700D01*
X100516667Y-71816033D02*
X100983333Y-71816033D01*
X100983333Y-71816033D02*
X100683333Y-72516033D01*
X93453333Y-81999366D02*
X93420000Y-82032700D01*
X93420000Y-82032700D02*
X93320000Y-82066033D01*
X93320000Y-82066033D02*
X93253333Y-82066033D01*
X93253333Y-82066033D02*
X93153333Y-82032700D01*
X93153333Y-82032700D02*
X93086667Y-81966033D01*
X93086667Y-81966033D02*
X93053333Y-81899366D01*
X93053333Y-81899366D02*
X93020000Y-81766033D01*
X93020000Y-81766033D02*
X93020000Y-81666033D01*
X93020000Y-81666033D02*
X93053333Y-81532700D01*
X93053333Y-81532700D02*
X93086667Y-81466033D01*
X93086667Y-81466033D02*
X93153333Y-81399366D01*
X93153333Y-81399366D02*
X93253333Y-81366033D01*
X93253333Y-81366033D02*
X93320000Y-81366033D01*
X93320000Y-81366033D02*
X93420000Y-81399366D01*
X93420000Y-81399366D02*
X93453333Y-81432700D01*
X93686667Y-81366033D02*
X94120000Y-81366033D01*
X94120000Y-81366033D02*
X93886667Y-81632700D01*
X93886667Y-81632700D02*
X93986667Y-81632700D01*
X93986667Y-81632700D02*
X94053333Y-81666033D01*
X94053333Y-81666033D02*
X94086667Y-81699366D01*
X94086667Y-81699366D02*
X94120000Y-81766033D01*
X94120000Y-81766033D02*
X94120000Y-81932700D01*
X94120000Y-81932700D02*
X94086667Y-81999366D01*
X94086667Y-81999366D02*
X94053333Y-82032700D01*
X94053333Y-82032700D02*
X93986667Y-82066033D01*
X93986667Y-82066033D02*
X93786667Y-82066033D01*
X93786667Y-82066033D02*
X93720000Y-82032700D01*
X93720000Y-82032700D02*
X93686667Y-81999366D01*
X97706595Y-76604818D02*
X97706595Y-77414341D01*
X97706595Y-77414341D02*
X97754214Y-77509579D01*
X97754214Y-77509579D02*
X97801833Y-77557199D01*
X97801833Y-77557199D02*
X97897071Y-77604818D01*
X97897071Y-77604818D02*
X98087547Y-77604818D01*
X98087547Y-77604818D02*
X98182785Y-77557199D01*
X98182785Y-77557199D02*
X98230404Y-77509579D01*
X98230404Y-77509579D02*
X98278023Y-77414341D01*
X98278023Y-77414341D02*
X98278023Y-76604818D01*
X99278023Y-77604818D02*
X98706595Y-77604818D01*
X98992309Y-77604818D02*
X98992309Y-76604818D01*
X98992309Y-76604818D02*
X98897071Y-76747675D01*
X98897071Y-76747675D02*
X98801833Y-76842913D01*
X98801833Y-76842913D02*
X98706595Y-76890532D01*
X95943333Y-73606033D02*
X95609999Y-73606033D01*
X95609999Y-73606033D02*
X95609999Y-72906033D01*
X96110000Y-72906033D02*
X96543333Y-72906033D01*
X96543333Y-72906033D02*
X96310000Y-73172700D01*
X96310000Y-73172700D02*
X96410000Y-73172700D01*
X96410000Y-73172700D02*
X96476666Y-73206033D01*
X96476666Y-73206033D02*
X96510000Y-73239366D01*
X96510000Y-73239366D02*
X96543333Y-73306033D01*
X96543333Y-73306033D02*
X96543333Y-73472700D01*
X96543333Y-73472700D02*
X96510000Y-73539366D01*
X96510000Y-73539366D02*
X96476666Y-73572700D01*
X96476666Y-73572700D02*
X96410000Y-73606033D01*
X96410000Y-73606033D02*
X96210000Y-73606033D01*
X96210000Y-73606033D02*
X96143333Y-73572700D01*
X96143333Y-73572700D02*
X96110000Y-73539366D01*
X92969366Y-73930000D02*
X93002700Y-73963333D01*
X93002700Y-73963333D02*
X93036033Y-74063333D01*
X93036033Y-74063333D02*
X93036033Y-74130000D01*
X93036033Y-74130000D02*
X93002700Y-74230000D01*
X93002700Y-74230000D02*
X92936033Y-74296667D01*
X92936033Y-74296667D02*
X92869366Y-74330000D01*
X92869366Y-74330000D02*
X92736033Y-74363333D01*
X92736033Y-74363333D02*
X92636033Y-74363333D01*
X92636033Y-74363333D02*
X92502700Y-74330000D01*
X92502700Y-74330000D02*
X92436033Y-74296667D01*
X92436033Y-74296667D02*
X92369366Y-74230000D01*
X92369366Y-74230000D02*
X92336033Y-74130000D01*
X92336033Y-74130000D02*
X92336033Y-74063333D01*
X92336033Y-74063333D02*
X92369366Y-73963333D01*
X92369366Y-73963333D02*
X92402700Y-73930000D01*
X93036033Y-73263333D02*
X93036033Y-73663333D01*
X93036033Y-73463333D02*
X92336033Y-73463333D01*
X92336033Y-73463333D02*
X92436033Y-73530000D01*
X92436033Y-73530000D02*
X92502700Y-73596667D01*
X92502700Y-73596667D02*
X92536033Y-73663333D01*
X93036033Y-72596666D02*
X93036033Y-72996666D01*
X93036033Y-72796666D02*
X92336033Y-72796666D01*
X92336033Y-72796666D02*
X92436033Y-72863333D01*
X92436033Y-72863333D02*
X92502700Y-72930000D01*
X92502700Y-72930000D02*
X92536033Y-72996666D01*
X98183333Y-73706033D02*
X97849999Y-73706033D01*
X97849999Y-73706033D02*
X97849999Y-73006033D01*
X98383333Y-73072700D02*
X98416666Y-73039366D01*
X98416666Y-73039366D02*
X98483333Y-73006033D01*
X98483333Y-73006033D02*
X98650000Y-73006033D01*
X98650000Y-73006033D02*
X98716666Y-73039366D01*
X98716666Y-73039366D02*
X98750000Y-73072700D01*
X98750000Y-73072700D02*
X98783333Y-73139366D01*
X98783333Y-73139366D02*
X98783333Y-73206033D01*
X98783333Y-73206033D02*
X98750000Y-73306033D01*
X98750000Y-73306033D02*
X98350000Y-73706033D01*
X98350000Y-73706033D02*
X98783333Y-73706033D01*
X92319366Y-75856666D02*
X92352700Y-75889999D01*
X92352700Y-75889999D02*
X92386033Y-75989999D01*
X92386033Y-75989999D02*
X92386033Y-76056666D01*
X92386033Y-76056666D02*
X92352700Y-76156666D01*
X92352700Y-76156666D02*
X92286033Y-76223333D01*
X92286033Y-76223333D02*
X92219366Y-76256666D01*
X92219366Y-76256666D02*
X92086033Y-76289999D01*
X92086033Y-76289999D02*
X91986033Y-76289999D01*
X91986033Y-76289999D02*
X91852700Y-76256666D01*
X91852700Y-76256666D02*
X91786033Y-76223333D01*
X91786033Y-76223333D02*
X91719366Y-76156666D01*
X91719366Y-76156666D02*
X91686033Y-76056666D01*
X91686033Y-76056666D02*
X91686033Y-75989999D01*
X91686033Y-75989999D02*
X91719366Y-75889999D01*
X91719366Y-75889999D02*
X91752700Y-75856666D01*
X91752700Y-75589999D02*
X91719366Y-75556666D01*
X91719366Y-75556666D02*
X91686033Y-75489999D01*
X91686033Y-75489999D02*
X91686033Y-75323333D01*
X91686033Y-75323333D02*
X91719366Y-75256666D01*
X91719366Y-75256666D02*
X91752700Y-75223333D01*
X91752700Y-75223333D02*
X91819366Y-75189999D01*
X91819366Y-75189999D02*
X91886033Y-75189999D01*
X91886033Y-75189999D02*
X91986033Y-75223333D01*
X91986033Y-75223333D02*
X92386033Y-75623333D01*
X92386033Y-75623333D02*
X92386033Y-75189999D01*
X97743333Y-82589366D02*
X97710000Y-82622700D01*
X97710000Y-82622700D02*
X97610000Y-82656033D01*
X97610000Y-82656033D02*
X97543333Y-82656033D01*
X97543333Y-82656033D02*
X97443333Y-82622700D01*
X97443333Y-82622700D02*
X97376667Y-82556033D01*
X97376667Y-82556033D02*
X97343333Y-82489366D01*
X97343333Y-82489366D02*
X97310000Y-82356033D01*
X97310000Y-82356033D02*
X97310000Y-82256033D01*
X97310000Y-82256033D02*
X97343333Y-82122700D01*
X97343333Y-82122700D02*
X97376667Y-82056033D01*
X97376667Y-82056033D02*
X97443333Y-81989366D01*
X97443333Y-81989366D02*
X97543333Y-81956033D01*
X97543333Y-81956033D02*
X97610000Y-81956033D01*
X97610000Y-81956033D02*
X97710000Y-81989366D01*
X97710000Y-81989366D02*
X97743333Y-82022700D01*
X98376667Y-81956033D02*
X98043333Y-81956033D01*
X98043333Y-81956033D02*
X98010000Y-82289366D01*
X98010000Y-82289366D02*
X98043333Y-82256033D01*
X98043333Y-82256033D02*
X98110000Y-82222700D01*
X98110000Y-82222700D02*
X98276667Y-82222700D01*
X98276667Y-82222700D02*
X98343333Y-82256033D01*
X98343333Y-82256033D02*
X98376667Y-82289366D01*
X98376667Y-82289366D02*
X98410000Y-82356033D01*
X98410000Y-82356033D02*
X98410000Y-82522700D01*
X98410000Y-82522700D02*
X98376667Y-82589366D01*
X98376667Y-82589366D02*
X98343333Y-82622700D01*
X98343333Y-82622700D02*
X98276667Y-82656033D01*
X98276667Y-82656033D02*
X98110000Y-82656033D01*
X98110000Y-82656033D02*
X98043333Y-82622700D01*
X98043333Y-82622700D02*
X98010000Y-82589366D01*
X100333333Y-82716033D02*
X99999999Y-82716033D01*
X99999999Y-82716033D02*
X99999999Y-82016033D01*
X100933333Y-82716033D02*
X100533333Y-82716033D01*
X100733333Y-82716033D02*
X100733333Y-82016033D01*
X100733333Y-82016033D02*
X100666666Y-82116033D01*
X100666666Y-82116033D02*
X100600000Y-82182700D01*
X100600000Y-82182700D02*
X100533333Y-82216033D01*
X93793333Y-71819366D02*
X93760000Y-71852700D01*
X93760000Y-71852700D02*
X93660000Y-71886033D01*
X93660000Y-71886033D02*
X93593333Y-71886033D01*
X93593333Y-71886033D02*
X93493333Y-71852700D01*
X93493333Y-71852700D02*
X93426667Y-71786033D01*
X93426667Y-71786033D02*
X93393333Y-71719366D01*
X93393333Y-71719366D02*
X93360000Y-71586033D01*
X93360000Y-71586033D02*
X93360000Y-71486033D01*
X93360000Y-71486033D02*
X93393333Y-71352700D01*
X93393333Y-71352700D02*
X93426667Y-71286033D01*
X93426667Y-71286033D02*
X93493333Y-71219366D01*
X93493333Y-71219366D02*
X93593333Y-71186033D01*
X93593333Y-71186033D02*
X93660000Y-71186033D01*
X93660000Y-71186033D02*
X93760000Y-71219366D01*
X93760000Y-71219366D02*
X93793333Y-71252700D01*
X94126667Y-71886033D02*
X94260000Y-71886033D01*
X94260000Y-71886033D02*
X94326667Y-71852700D01*
X94326667Y-71852700D02*
X94360000Y-71819366D01*
X94360000Y-71819366D02*
X94426667Y-71719366D01*
X94426667Y-71719366D02*
X94460000Y-71586033D01*
X94460000Y-71586033D02*
X94460000Y-71319366D01*
X94460000Y-71319366D02*
X94426667Y-71252700D01*
X94426667Y-71252700D02*
X94393333Y-71219366D01*
X94393333Y-71219366D02*
X94326667Y-71186033D01*
X94326667Y-71186033D02*
X94193333Y-71186033D01*
X94193333Y-71186033D02*
X94126667Y-71219366D01*
X94126667Y-71219366D02*
X94093333Y-71252700D01*
X94093333Y-71252700D02*
X94060000Y-71319366D01*
X94060000Y-71319366D02*
X94060000Y-71486033D01*
X94060000Y-71486033D02*
X94093333Y-71552700D01*
X94093333Y-71552700D02*
X94126667Y-71586033D01*
X94126667Y-71586033D02*
X94193333Y-71619366D01*
X94193333Y-71619366D02*
X94326667Y-71619366D01*
X94326667Y-71619366D02*
X94393333Y-71586033D01*
X94393333Y-71586033D02*
X94426667Y-71552700D01*
X94426667Y-71552700D02*
X94460000Y-71486033D01*
X92832700Y-79556334D02*
X93166033Y-79556334D01*
X92466033Y-79789667D02*
X92832700Y-79556334D01*
X92832700Y-79556334D02*
X92466033Y-79323000D01*
X93166033Y-78723000D02*
X93166033Y-79123000D01*
X93166033Y-78923000D02*
X92466033Y-78923000D01*
X92466033Y-78923000D02*
X92566033Y-78989667D01*
X92566033Y-78989667D02*
X92632700Y-79056334D01*
X92632700Y-79056334D02*
X92666033Y-79123000D01*
X99173333Y-80876033D02*
X98940000Y-80542700D01*
X98773333Y-80876033D02*
X98773333Y-80176033D01*
X98773333Y-80176033D02*
X99040000Y-80176033D01*
X99040000Y-80176033D02*
X99106667Y-80209366D01*
X99106667Y-80209366D02*
X99140000Y-80242700D01*
X99140000Y-80242700D02*
X99173333Y-80309366D01*
X99173333Y-80309366D02*
X99173333Y-80409366D01*
X99173333Y-80409366D02*
X99140000Y-80476033D01*
X99140000Y-80476033D02*
X99106667Y-80509366D01*
X99106667Y-80509366D02*
X99040000Y-80542700D01*
X99040000Y-80542700D02*
X98773333Y-80542700D01*
X99840000Y-80876033D02*
X99440000Y-80876033D01*
X99640000Y-80876033D02*
X99640000Y-80176033D01*
X99640000Y-80176033D02*
X99573333Y-80276033D01*
X99573333Y-80276033D02*
X99506667Y-80342700D01*
X99506667Y-80342700D02*
X99440000Y-80376033D01*
X97913333Y-70799366D02*
X97880000Y-70832700D01*
X97880000Y-70832700D02*
X97780000Y-70866033D01*
X97780000Y-70866033D02*
X97713333Y-70866033D01*
X97713333Y-70866033D02*
X97613333Y-70832700D01*
X97613333Y-70832700D02*
X97546667Y-70766033D01*
X97546667Y-70766033D02*
X97513333Y-70699366D01*
X97513333Y-70699366D02*
X97480000Y-70566033D01*
X97480000Y-70566033D02*
X97480000Y-70466033D01*
X97480000Y-70466033D02*
X97513333Y-70332700D01*
X97513333Y-70332700D02*
X97546667Y-70266033D01*
X97546667Y-70266033D02*
X97613333Y-70199366D01*
X97613333Y-70199366D02*
X97713333Y-70166033D01*
X97713333Y-70166033D02*
X97780000Y-70166033D01*
X97780000Y-70166033D02*
X97880000Y-70199366D01*
X97880000Y-70199366D02*
X97913333Y-70232700D01*
X98313333Y-70466033D02*
X98246667Y-70432700D01*
X98246667Y-70432700D02*
X98213333Y-70399366D01*
X98213333Y-70399366D02*
X98180000Y-70332700D01*
X98180000Y-70332700D02*
X98180000Y-70299366D01*
X98180000Y-70299366D02*
X98213333Y-70232700D01*
X98213333Y-70232700D02*
X98246667Y-70199366D01*
X98246667Y-70199366D02*
X98313333Y-70166033D01*
X98313333Y-70166033D02*
X98446667Y-70166033D01*
X98446667Y-70166033D02*
X98513333Y-70199366D01*
X98513333Y-70199366D02*
X98546667Y-70232700D01*
X98546667Y-70232700D02*
X98580000Y-70299366D01*
X98580000Y-70299366D02*
X98580000Y-70332700D01*
X98580000Y-70332700D02*
X98546667Y-70399366D01*
X98546667Y-70399366D02*
X98513333Y-70432700D01*
X98513333Y-70432700D02*
X98446667Y-70466033D01*
X98446667Y-70466033D02*
X98313333Y-70466033D01*
X98313333Y-70466033D02*
X98246667Y-70499366D01*
X98246667Y-70499366D02*
X98213333Y-70532700D01*
X98213333Y-70532700D02*
X98180000Y-70599366D01*
X98180000Y-70599366D02*
X98180000Y-70732700D01*
X98180000Y-70732700D02*
X98213333Y-70799366D01*
X98213333Y-70799366D02*
X98246667Y-70832700D01*
X98246667Y-70832700D02*
X98313333Y-70866033D01*
X98313333Y-70866033D02*
X98446667Y-70866033D01*
X98446667Y-70866033D02*
X98513333Y-70832700D01*
X98513333Y-70832700D02*
X98546667Y-70799366D01*
X98546667Y-70799366D02*
X98580000Y-70732700D01*
X98580000Y-70732700D02*
X98580000Y-70599366D01*
X98580000Y-70599366D02*
X98546667Y-70532700D01*
X98546667Y-70532700D02*
X98513333Y-70499366D01*
X98513333Y-70499366D02*
X98446667Y-70466033D01*
D12*
%TO.C,C1*%
X95457000Y-74577835D02*
X95457000Y-74362163D01*
X96177000Y-74577835D02*
X96177000Y-74362163D01*
%TO.C,C10*%
X95912164Y-70940000D02*
X96127836Y-70940000D01*
X95912164Y-71660000D02*
X96127836Y-71660000D01*
%TO.C,C6*%
X96459420Y-83390000D02*
X96740580Y-83390000D01*
X96459420Y-84410000D02*
X96740580Y-84410000D01*
%TO.C,C4*%
X93512164Y-76640000D02*
X93727836Y-76640000D01*
X93512164Y-77360000D02*
X93727836Y-77360000D01*
%TO.C,C7*%
X100292164Y-72740000D02*
X100507836Y-72740000D01*
X100292164Y-73460000D02*
X100507836Y-73460000D01*
%TO.C,C3*%
X94472164Y-80563001D02*
X94687836Y-80563001D01*
X94472164Y-81283001D02*
X94687836Y-81283001D01*
D13*
%TO.C,U1*%
X96296800Y-74978299D02*
X96296800Y-75440259D01*
X96296800Y-78859739D02*
X96296800Y-79321699D01*
X96296800Y-79321699D02*
X96758760Y-79321699D01*
X96758760Y-74978299D02*
X96296800Y-74978299D01*
X100178240Y-79321699D02*
X100640200Y-79321699D01*
X100640200Y-74978299D02*
X100178240Y-74978299D01*
X100640200Y-75440259D02*
X100640200Y-74978299D01*
X100640200Y-79321699D02*
X100640200Y-78859739D01*
G36*
X98909000Y-80007499D02*
G01*
X98527999Y-80007499D01*
X98527999Y-79753499D01*
X98909000Y-79753499D01*
X98909000Y-80007499D01*
G37*
G36*
X99409001Y-74546499D02*
G01*
X99028001Y-74546499D01*
X99028001Y-74292499D01*
X99409001Y-74292499D01*
X99409001Y-74546499D01*
G37*
D12*
%TO.C,C11*%
X94007836Y-73960000D02*
X93792164Y-73960000D01*
X94007836Y-73240000D02*
X93792164Y-73240000D01*
%TO.C,C2*%
X93407836Y-75849999D02*
X93192164Y-75849999D01*
X93407836Y-75129999D02*
X93192164Y-75129999D01*
%TO.C,C5*%
X97707836Y-81860000D02*
X97492164Y-81860000D01*
X97707836Y-81140000D02*
X97492164Y-81140000D01*
%TO.C,C9*%
X93792164Y-72140000D02*
X94007836Y-72140000D01*
X93792164Y-72860000D02*
X94007836Y-72860000D01*
%TO.C,Y1*%
X93367000Y-80413000D02*
X95667000Y-80413000D01*
X95667000Y-80413000D02*
X95667000Y-77713000D01*
%TO.C,R1*%
X97413359Y-80109999D02*
X97720641Y-80109999D01*
X97413359Y-80869999D02*
X97720641Y-80869999D01*
%TO.C,C8*%
X97972164Y-70940000D02*
X98187836Y-70940000D01*
X97972164Y-71660000D02*
X98187836Y-71660000D01*
%TD*%
M02*
