%TF.GenerationSoftware,KiCad,Pcbnew,7.0.8*%
%TF.CreationDate,2024-01-16T20:57:43+00:00*%
%TF.ProjectId,RadioModule,52616469-6f4d-46f6-9475-6c652e6b6963,rev?*%
%TF.SameCoordinates,Original*%
%TF.FileFunction,Copper,L1,Top*%
%TF.FilePolarity,Positive*%
%FSLAX46Y46*%
G04 Gerber Fmt 4.6, Leading zero omitted, Abs format (unit mm)*
G04 Created by KiCad (PCBNEW 7.0.8) date 2024-01-16 20:57:43*
%MOMM*%
%LPD*%
G01*
G04 APERTURE LIST*
G04 Aperture macros list*
%AMRoundRect*
0 Rectangle with rounded corners*
0 $1 Rounding radius*
0 $2 $3 $4 $5 $6 $7 $8 $9 X,Y pos of 4 corners*
0 Add a 4 corners polygon primitive as box body*
4,1,4,$2,$3,$4,$5,$6,$7,$8,$9,$2,$3,0*
0 Add four circle primitives for the rounded corners*
1,1,$1+$1,$2,$3*
1,1,$1+$1,$4,$5*
1,1,$1+$1,$6,$7*
1,1,$1+$1,$8,$9*
0 Add four rect primitives between the rounded corners*
20,1,$1+$1,$2,$3,$4,$5,0*
20,1,$1+$1,$4,$5,$6,$7,0*
20,1,$1+$1,$6,$7,$8,$9,0*
20,1,$1+$1,$8,$9,$2,$3,0*%
G04 Aperture macros list end*
%TA.AperFunction,CastellatedPad*%
%ADD10RoundRect,0.250000X0.750000X-0.250000X0.750000X0.250000X-0.750000X0.250000X-0.750000X-0.250000X0*%
%TD*%
%TA.AperFunction,SMDPad,CuDef*%
%ADD11RoundRect,0.140000X0.170000X-0.140000X0.170000X0.140000X-0.170000X0.140000X-0.170000X-0.140000X0*%
%TD*%
%TA.AperFunction,SMDPad,CuDef*%
%ADD12RoundRect,0.140000X-0.140000X-0.170000X0.140000X-0.170000X0.140000X0.170000X-0.140000X0.170000X0*%
%TD*%
%TA.AperFunction,SMDPad,CuDef*%
%ADD13RoundRect,0.225000X-0.225000X-0.250000X0.225000X-0.250000X0.225000X0.250000X-0.225000X0.250000X0*%
%TD*%
%TA.AperFunction,SMDPad,CuDef*%
%ADD14R,0.762000X0.254000*%
%TD*%
%TA.AperFunction,SMDPad,CuDef*%
%ADD15R,0.254000X0.762000*%
%TD*%
%TA.AperFunction,SMDPad,CuDef*%
%ADD16R,2.641600X2.641600*%
%TD*%
%TA.AperFunction,SMDPad,CuDef*%
%ADD17RoundRect,0.147500X0.147500X0.172500X-0.147500X0.172500X-0.147500X-0.172500X0.147500X-0.172500X0*%
%TD*%
%TA.AperFunction,SMDPad,CuDef*%
%ADD18RoundRect,0.140000X0.140000X0.170000X-0.140000X0.170000X-0.140000X-0.170000X0.140000X-0.170000X0*%
%TD*%
%TA.AperFunction,SMDPad,CuDef*%
%ADD19RoundRect,0.147500X-0.147500X-0.172500X0.147500X-0.172500X0.147500X0.172500X-0.147500X0.172500X0*%
%TD*%
%TA.AperFunction,SMDPad,CuDef*%
%ADD20R,0.800000X0.900000*%
%TD*%
%TA.AperFunction,SMDPad,CuDef*%
%ADD21RoundRect,0.135000X-0.135000X-0.185000X0.135000X-0.185000X0.135000X0.185000X-0.135000X0.185000X0*%
%TD*%
%TA.AperFunction,ViaPad*%
%ADD22C,0.800000*%
%TD*%
%TA.AperFunction,Conductor*%
%ADD23C,0.300000*%
%TD*%
%TA.AperFunction,Conductor*%
%ADD24C,0.200000*%
%TD*%
%TA.AperFunction,Conductor*%
%ADD25C,0.500000*%
%TD*%
G04 APERTURE END LIST*
D10*
%TO.P,J5,1,Pin_1*%
%TO.N,3V3*%
X90000000Y-79000000D03*
%TD*%
%TO.P,J7,1,Pin_1*%
%TO.N,unconnected-(J7-Pin_1-Pad1)*%
X90000000Y-83000000D03*
%TD*%
%TO.P,J9,1,Pin_1*%
%TO.N,GND*%
X106000000Y-71000000D03*
%TD*%
%TO.P,J3,1,Pin_1*%
%TO.N,unconnected-(J3-Pin_1-Pad1)*%
X90000000Y-75000000D03*
%TD*%
D11*
%TO.P,C1,1*%
%TO.N,/V_PA*%
X95817000Y-74949999D03*
%TO.P,C1,2*%
%TO.N,GND*%
X95817000Y-73989999D03*
%TD*%
D12*
%TO.P,C10,1*%
%TO.N,Net-(C10-Pad1)*%
X95540000Y-71300000D03*
%TO.P,C10,2*%
%TO.N,Net-(C10-Pad2)*%
X96500000Y-71300000D03*
%TD*%
D10*
%TO.P,J16,1,Pin_1*%
%TO.N,GND*%
X106000000Y-85000000D03*
%TD*%
D13*
%TO.P,C6,1*%
%TO.N,/V_DCC*%
X95825000Y-83900000D03*
%TO.P,C6,2*%
%TO.N,GND*%
X97375000Y-83900000D03*
%TD*%
D12*
%TO.P,C4,1*%
%TO.N,GND*%
X93140000Y-77000000D03*
%TO.P,C4,2*%
%TO.N,/XTA*%
X94100000Y-77000000D03*
%TD*%
%TO.P,C7,1*%
%TO.N,Net-(U1-RFIO)*%
X99920000Y-73100000D03*
%TO.P,C7,2*%
%TO.N,GND*%
X100880000Y-73100000D03*
%TD*%
%TO.P,C3,1*%
%TO.N,GND*%
X94100000Y-80923001D03*
%TO.P,C3,2*%
%TO.N,/XTB_Reference Oscillator*%
X95060000Y-80923001D03*
%TD*%
D14*
%TO.P,U1,1,VR_PA*%
%TO.N,/V_PA*%
X96500000Y-75899999D03*
%TO.P,U1,2,VDD_INN*%
%TO.N,/V_DCC*%
X96500000Y-76399998D03*
%TO.P,U1,3,NRESET*%
%TO.N,NRST*%
X96500000Y-76899999D03*
%TO.P,U1,4,XTA*%
%TO.N,/XTA*%
X96500000Y-77399999D03*
%TO.P,U1,5,GND*%
%TO.N,GND*%
X96500000Y-77900000D03*
%TO.P,U1,6,XTB*%
%TO.N,/XTB_Reference Oscillator*%
X96500000Y-78399999D03*
D15*
%TO.P,U1,7,BUSY*%
%TO.N,unconnected-(U1-BUSY-Pad7)*%
X97218500Y-79118499D03*
%TO.P,U1,8,DIO1*%
%TO.N,INT*%
X97718499Y-79118499D03*
%TO.P,U1,9,DIO2*%
%TO.N,unconnected-(U1-DIO2-Pad9)*%
X98218500Y-79118499D03*
%TO.P,U1,10,DIO3*%
%TO.N,unconnected-(U1-DIO3-Pad10)*%
X98718500Y-79118499D03*
%TO.P,U1,11,VBAT_IO*%
%TO.N,Net-(U1-VBAT_IO)*%
X99218501Y-79118499D03*
%TO.P,U1,12,DCC_FB*%
%TO.N,/V_DCC*%
X99718500Y-79118499D03*
D14*
%TO.P,U1,13,GND*%
%TO.N,GND*%
X100437000Y-78399999D03*
%TO.P,U1,14,DCC_SW*%
%TO.N,/V_DCC2*%
X100437000Y-77900000D03*
%TO.P,U1,15,VBAT*%
%TO.N,3V3*%
X100437000Y-77399999D03*
%TO.P,U1,16,MISO_TX*%
%TO.N,MISO*%
X100437000Y-76899999D03*
%TO.P,U1,17,MOSI_RX*%
%TO.N,MOSI*%
X100437000Y-76399998D03*
%TO.P,U1,18,SCK_RTSN*%
%TO.N,SCK*%
X100437000Y-75899999D03*
D15*
%TO.P,U1,19,NSS_CTS*%
%TO.N,CS*%
X99718500Y-75181499D03*
%TO.P,U1,20,GND*%
%TO.N,GND*%
X99218501Y-75181499D03*
%TO.P,U1,21,GND*%
X98718500Y-75181499D03*
%TO.P,U1,22,RFIO*%
%TO.N,Net-(U1-RFIO)*%
X98218500Y-75181499D03*
%TO.P,U1,23,GND*%
%TO.N,GND*%
X97718499Y-75181499D03*
%TO.P,U1,24,GND*%
X97218500Y-75181499D03*
D16*
%TO.P,U1,25,GND*%
X98468500Y-77149999D03*
%TD*%
D17*
%TO.P,L3,1,1*%
%TO.N,Net-(C10-Pad2)*%
X96500000Y-72500000D03*
%TO.P,L3,2,2*%
%TO.N,Net-(C10-Pad1)*%
X95530000Y-72500000D03*
%TD*%
D10*
%TO.P,J6,1,Pin_1*%
%TO.N,INT*%
X90000000Y-81000000D03*
%TD*%
D18*
%TO.P,C11,1*%
%TO.N,Net-(C10-Pad1)*%
X94380000Y-73600000D03*
%TO.P,C11,2*%
%TO.N,GND*%
X93420000Y-73600000D03*
%TD*%
D10*
%TO.P,J12,1,Pin_1*%
%TO.N,CS*%
X106000000Y-77000000D03*
%TD*%
D17*
%TO.P,L2,1,1*%
%TO.N,Net-(U1-RFIO)*%
X98585000Y-72500000D03*
%TO.P,L2,2,2*%
%TO.N,Net-(C10-Pad2)*%
X97615000Y-72500000D03*
%TD*%
D18*
%TO.P,C2,1*%
%TO.N,/V_DCC*%
X93780000Y-75489999D03*
%TO.P,C2,2*%
%TO.N,GND*%
X92820000Y-75489999D03*
%TD*%
D10*
%TO.P,J2,1,Pin_1*%
%TO.N,GND*%
X90000000Y-73000000D03*
%TD*%
%TO.P,J11,1,Pin_1*%
%TO.N,NRST*%
X106000000Y-75000000D03*
%TD*%
%TO.P,J15,1,Pin_1*%
%TO.N,MISO*%
X106000000Y-83000000D03*
%TD*%
D18*
%TO.P,C5,1*%
%TO.N,Net-(U1-VBAT_IO)*%
X98080000Y-81500000D03*
%TO.P,C5,2*%
%TO.N,GND*%
X97120000Y-81500000D03*
%TD*%
D10*
%TO.P,J4,1,Pin_1*%
%TO.N,unconnected-(J4-Pin_1-Pad1)*%
X90000000Y-77000000D03*
%TD*%
%TO.P,J14,1,Pin_1*%
%TO.N,MOSI*%
X106000000Y-81000000D03*
%TD*%
%TO.P,J1,1,Pin_1*%
%TO.N,ANT*%
X90000000Y-71000000D03*
%TD*%
%TO.P,J8,1,Pin_1*%
%TO.N,unconnected-(J8-Pin_1-Pad1)*%
X90000000Y-85000000D03*
%TD*%
D19*
%TO.P,L1,1,1*%
%TO.N,/V_DCC*%
X99847000Y-81489999D03*
%TO.P,L1,2,2*%
%TO.N,/V_DCC2*%
X100817000Y-81489999D03*
%TD*%
D10*
%TO.P,J10,1,Pin_1*%
%TO.N,unconnected-(J10-Pin_1-Pad1)*%
X106000000Y-73000000D03*
%TD*%
D12*
%TO.P,C9,1*%
%TO.N,ANT*%
X93420000Y-72500000D03*
%TO.P,C9,2*%
%TO.N,Net-(C10-Pad1)*%
X94380000Y-72500000D03*
%TD*%
D10*
%TO.P,J13,1,Pin_1*%
%TO.N,SCK*%
X106000000Y-79000000D03*
%TD*%
D20*
%TO.P,Y1,1,1*%
%TO.N,/XTB_Reference Oscillator*%
X95067000Y-79763000D03*
%TO.P,Y1,2,2*%
%TO.N,GND*%
X95067000Y-78363000D03*
%TO.P,Y1,3,3*%
%TO.N,/XTA*%
X93967000Y-78363000D03*
%TO.P,Y1,4,4*%
%TO.N,GND*%
X93967000Y-79763000D03*
%TD*%
D21*
%TO.P,R1,1*%
%TO.N,3V3*%
X97057000Y-80489999D03*
%TO.P,R1,2*%
%TO.N,Net-(U1-VBAT_IO)*%
X98077000Y-80489999D03*
%TD*%
D12*
%TO.P,C8,1*%
%TO.N,Net-(C10-Pad2)*%
X97600000Y-71300000D03*
%TO.P,C8,2*%
%TO.N,GND*%
X98560000Y-71300000D03*
%TD*%
D22*
%TO.N,GND*%
X99200000Y-77100000D03*
X92000000Y-74600000D03*
X93800000Y-74500000D03*
X102300000Y-73100000D03*
X92800000Y-78000000D03*
X100100000Y-71300000D03*
X97800000Y-77100000D03*
X98700000Y-84000000D03*
X96700000Y-82400000D03*
%TO.N,INT*%
X96200000Y-79900000D03*
X92600000Y-82700000D03*
%TO.N,NRST*%
X97400000Y-74100000D03*
X94979499Y-76839694D03*
X94993869Y-75440757D03*
X99100000Y-74100000D03*
%TO.N,3V3*%
X96315712Y-80999803D03*
X95117500Y-82189499D03*
%TD*%
D23*
%TO.N,/V_PA*%
X95817000Y-75216999D02*
X96500000Y-75899999D01*
X95817000Y-74949999D02*
X95817000Y-75216999D01*
%TO.N,GND*%
X95545539Y-77900000D02*
X95082539Y-78363000D01*
X97718499Y-77900000D02*
X98468500Y-77149999D01*
X91600000Y-73000000D02*
X90000000Y-73000000D01*
X96027000Y-73989999D02*
X97218500Y-75181499D01*
D24*
X93140000Y-77660000D02*
X92800000Y-78000000D01*
D23*
X97800000Y-76481499D02*
X97800000Y-77100000D01*
X98560000Y-71300000D02*
X100100000Y-71300000D01*
X93420000Y-73620000D02*
X92820000Y-74220000D01*
X92100000Y-74500000D02*
X92000000Y-74600000D01*
X96500000Y-77900000D02*
X95545539Y-77900000D01*
D24*
X94100000Y-79772999D02*
X93967000Y-79639999D01*
D23*
X96500000Y-77900000D02*
X97718499Y-77900000D01*
X98718500Y-76899999D02*
X98468500Y-77149999D01*
X97218500Y-75181499D02*
X97218500Y-75435499D01*
X93420000Y-73600000D02*
X93420000Y-73620000D01*
X92820000Y-74500000D02*
X92100000Y-74500000D01*
X100424500Y-78387499D02*
X99706000Y-78387499D01*
X99200000Y-76418499D02*
X99200000Y-77100000D01*
D24*
X92800000Y-78422999D02*
X93967000Y-79589999D01*
D23*
X100880000Y-73100000D02*
X102300000Y-73100000D01*
X92820000Y-75489999D02*
X92820000Y-74500000D01*
X97218500Y-75422999D02*
X97241500Y-75422999D01*
D24*
X93967000Y-79589999D02*
X93967000Y-79639999D01*
D23*
X97218500Y-75181499D02*
X97218500Y-75422999D01*
X97800000Y-77100000D02*
X98418501Y-77100000D01*
X92820000Y-74220000D02*
X91600000Y-73000000D01*
X99218501Y-76399998D02*
X99200000Y-76418499D01*
X99218501Y-75181499D02*
X99218501Y-76399998D01*
X97475000Y-84000000D02*
X97375000Y-83900000D01*
X99706000Y-78387499D02*
X98468500Y-77149999D01*
D24*
X93140000Y-77000000D02*
X93140000Y-77660000D01*
X92800000Y-78000000D02*
X92800000Y-78422999D01*
D23*
X97120000Y-81500000D02*
X97120000Y-81980000D01*
X100437000Y-78399999D02*
X100424500Y-78387499D01*
X98718500Y-75181499D02*
X98718500Y-76899999D01*
X92820000Y-74500000D02*
X93800000Y-74500000D01*
X95817000Y-73989999D02*
X96027000Y-73989999D01*
X98700000Y-84000000D02*
X97475000Y-84000000D01*
X97718499Y-75181499D02*
X97718499Y-76399998D01*
X99200000Y-77100000D02*
X98518499Y-77100000D01*
D24*
X94100000Y-80923001D02*
X94100000Y-79896000D01*
D23*
X97120000Y-81980000D02*
X96700000Y-82400000D01*
X98468500Y-76649999D02*
X98468500Y-77149999D01*
X97718499Y-76399998D02*
X97800000Y-76481499D01*
X98518499Y-77100000D02*
X98468500Y-77149999D01*
X97241500Y-75422999D02*
X98468500Y-76649999D01*
X92820000Y-74500000D02*
X92820000Y-74220000D01*
X95082539Y-78363000D02*
X95067000Y-78363000D01*
X98418501Y-77100000D02*
X98468500Y-77149999D01*
D24*
%TO.N,/V_DCC*%
X100917000Y-80683000D02*
X100730001Y-80869999D01*
X99610001Y-83189999D02*
X99847000Y-82953000D01*
X92000000Y-78400000D02*
X92177818Y-78400000D01*
X95626999Y-76399998D02*
X95367000Y-76139999D01*
X91900000Y-76500000D02*
X91900000Y-78300000D01*
X99847000Y-82953000D02*
X99847000Y-81489999D01*
X100730001Y-80869999D02*
X100467000Y-80869999D01*
X91900000Y-78300000D02*
X92000000Y-78400000D01*
X93067000Y-79289182D02*
X93067000Y-81139999D01*
X99718500Y-79118499D02*
X100435499Y-79118499D01*
X93417000Y-81489999D02*
X95817000Y-81489999D01*
X95817000Y-81489999D02*
X95817000Y-83189999D01*
X93780000Y-75489999D02*
X93780000Y-76059999D01*
X94267000Y-76139999D02*
X93700000Y-76139999D01*
X100435499Y-79118499D02*
X100917000Y-79600000D01*
X92260001Y-76139999D02*
X91900000Y-76500000D01*
X93067000Y-81139999D02*
X93417000Y-81489999D01*
X93780000Y-76059999D02*
X93700000Y-76139999D01*
X100467000Y-80869999D02*
X99847000Y-81489999D01*
X96500000Y-76399998D02*
X95626999Y-76399998D01*
X95825000Y-83900000D02*
X95825000Y-83197999D01*
X95817000Y-83189999D02*
X99610001Y-83189999D01*
X95367000Y-76139999D02*
X94267000Y-76139999D01*
X95825000Y-83197999D02*
X95817000Y-83189999D01*
X93700000Y-76139999D02*
X92260001Y-76139999D01*
X100917000Y-79600000D02*
X100917000Y-80683000D01*
X92177818Y-78400000D02*
X93067000Y-79289182D01*
%TO.N,/XTB_Reference Oscillator*%
X95060000Y-80923001D02*
X95060000Y-79770000D01*
X95060000Y-79646999D02*
X95067000Y-79639999D01*
X96500000Y-78399999D02*
X96307000Y-78399999D01*
X96307000Y-78399999D02*
X95067000Y-79639999D01*
%TO.N,/XTA*%
X95269449Y-77539694D02*
X94639694Y-77539694D01*
X94140306Y-77539694D02*
X93967000Y-77713000D01*
X93967000Y-77713000D02*
X93967000Y-78363000D01*
X95409144Y-77399999D02*
X95269449Y-77539694D01*
X94639694Y-77539694D02*
X94140306Y-77539694D01*
X94639694Y-77539694D02*
X94100000Y-77000000D01*
X96500000Y-77399999D02*
X95409144Y-77399999D01*
D23*
%TO.N,Net-(U1-VBAT_IO)*%
X99218501Y-79118499D02*
X99218501Y-79826498D01*
X99218501Y-79826498D02*
X98555000Y-80489999D01*
D24*
X98077000Y-80489999D02*
X98077000Y-81497000D01*
X98077000Y-81497000D02*
X98080000Y-81500000D01*
D23*
X98555000Y-80489999D02*
X98077000Y-80489999D01*
%TO.N,Net-(U1-RFIO)*%
X98368500Y-73350000D02*
X99670000Y-73350000D01*
X98218500Y-75181499D02*
X98218500Y-73500000D01*
X98368500Y-73350000D02*
X98585000Y-73133500D01*
X98585000Y-73133500D02*
X98585000Y-72500000D01*
X98218500Y-73500000D02*
X98368500Y-73350000D01*
X99670000Y-73350000D02*
X99920000Y-73100000D01*
%TO.N,Net-(C10-Pad2)*%
X97615000Y-71315000D02*
X97600000Y-71300000D01*
X97615000Y-72500000D02*
X97615000Y-71315000D01*
X96500000Y-72500000D02*
X96500000Y-71300000D01*
X96500000Y-72500000D02*
X97615000Y-72500000D01*
%TO.N,Net-(C10-Pad1)*%
X95540000Y-71300000D02*
X95540000Y-72490000D01*
X95530000Y-72500000D02*
X94380000Y-72500000D01*
X95540000Y-72490000D02*
X95530000Y-72500000D01*
X94380000Y-72500000D02*
X94380000Y-73600000D01*
D24*
%TO.N,/V_DCC2*%
X101317000Y-78171999D02*
X101317000Y-80983000D01*
X100437000Y-77900000D02*
X101045001Y-77900000D01*
X101317000Y-80983000D02*
X100817000Y-81483000D01*
X100817000Y-81483000D02*
X100817000Y-81489999D01*
X101045001Y-77900000D02*
X101317000Y-78171999D01*
D23*
%TO.N,ANT*%
X93420000Y-71820000D02*
X92600000Y-71000000D01*
X92600000Y-71000000D02*
X90000000Y-71000000D01*
X93420000Y-72500000D02*
X93420000Y-71820000D01*
D24*
%TO.N,INT*%
X92600000Y-82700000D02*
X91700000Y-82700000D01*
X97718499Y-79118499D02*
X97718499Y-79726500D01*
X97718499Y-79726500D02*
X97589352Y-79855647D01*
X97589352Y-79855647D02*
X96244353Y-79855647D01*
X91700000Y-82700000D02*
X90000000Y-81000000D01*
X96244353Y-79855647D02*
X96200000Y-79900000D01*
%TO.N,NRST*%
X95060500Y-76899999D02*
X95039804Y-76899999D01*
X94993869Y-73506131D02*
X95200000Y-73300000D01*
X99100000Y-74100000D02*
X101500000Y-74100000D01*
X96971066Y-73700000D02*
X97000000Y-73700000D01*
X97000000Y-73700000D02*
X97400000Y-74100000D01*
X102400000Y-75000000D02*
X106000000Y-75000000D01*
X101500000Y-74100000D02*
X102400000Y-75000000D01*
X96571066Y-73300000D02*
X96971066Y-73700000D01*
X96500000Y-76899999D02*
X95060500Y-76899999D01*
X95039804Y-76899999D02*
X94979499Y-76839694D01*
X94993869Y-75440757D02*
X94993869Y-73506131D01*
X95200000Y-73300000D02*
X96571066Y-73300000D01*
D23*
%TO.N,CS*%
X101791320Y-75181499D02*
X103609821Y-77000000D01*
X99718500Y-75181499D02*
X101791320Y-75181499D01*
X103609821Y-77000000D02*
X106000000Y-77000000D01*
%TO.N,SCK*%
X100437000Y-75899999D02*
X101802714Y-75899999D01*
X104902715Y-79000000D02*
X106000000Y-79000000D01*
X101802714Y-75899999D02*
X104902715Y-79000000D01*
%TO.N,MOSI*%
X103000000Y-77804391D02*
X103000000Y-80200000D01*
X103000000Y-80200000D02*
X103800000Y-81000000D01*
X100437000Y-76399998D02*
X101595608Y-76399999D01*
X103800000Y-81000000D02*
X106000000Y-81000000D01*
X101595608Y-76399999D02*
X103000000Y-77804391D01*
%TO.N,MISO*%
X103100000Y-83000000D02*
X106000000Y-83000000D01*
X102500000Y-78011497D02*
X102500000Y-82400000D01*
X101388502Y-76899999D02*
X102500000Y-78011497D01*
X100437000Y-76899999D02*
X101388502Y-76899999D01*
X102500000Y-82400000D02*
X103100000Y-83000000D01*
D25*
%TO.N,3V3*%
X95117500Y-82189499D02*
X94300000Y-82189499D01*
X93338682Y-82189499D02*
X92300000Y-81150817D01*
X97057000Y-80489999D02*
X96825516Y-80489999D01*
D23*
X101181396Y-77399999D02*
X100437000Y-77399999D01*
X101767000Y-77985603D02*
X101181396Y-77399999D01*
X94582593Y-84800000D02*
X99800000Y-84800000D01*
D25*
X96825516Y-80489999D02*
X96315712Y-80999803D01*
D23*
X101767000Y-82833000D02*
X101767000Y-77985603D01*
X94300000Y-84517407D02*
X94582593Y-84800000D01*
D25*
X92300000Y-81150817D02*
X92300000Y-79300000D01*
D23*
X94300000Y-82189499D02*
X94300000Y-84517407D01*
X99800000Y-84800000D02*
X101767000Y-82833000D01*
D25*
X92300000Y-79300000D02*
X92000000Y-79000000D01*
X94300000Y-82189499D02*
X93338682Y-82189499D01*
X92000000Y-79000000D02*
X90000000Y-79000000D01*
%TD*%
M02*
