%TF.GenerationSoftware,KiCad,Pcbnew,7.0.8*%
%TF.CreationDate,2024-01-16T20:57:43+00:00*%
%TF.ProjectId,RadioModule,52616469-6f4d-46f6-9475-6c652e6b6963,rev?*%
%TF.SameCoordinates,Original*%
%TF.FileFunction,Copper,L4,Bot*%
%TF.FilePolarity,Positive*%
%FSLAX46Y46*%
G04 Gerber Fmt 4.6, Leading zero omitted, Abs format (unit mm)*
G04 Created by KiCad (PCBNEW 7.0.8) date 2024-01-16 20:57:43*
%MOMM*%
%LPD*%
G01*
G04 APERTURE LIST*
G04 Aperture macros list*
%AMRoundRect*
0 Rectangle with rounded corners*
0 $1 Rounding radius*
0 $2 $3 $4 $5 $6 $7 $8 $9 X,Y pos of 4 corners*
0 Add a 4 corners polygon primitive as box body*
4,1,4,$2,$3,$4,$5,$6,$7,$8,$9,$2,$3,0*
0 Add four circle primitives for the rounded corners*
1,1,$1+$1,$2,$3*
1,1,$1+$1,$4,$5*
1,1,$1+$1,$6,$7*
1,1,$1+$1,$8,$9*
0 Add four rect primitives between the rounded corners*
20,1,$1+$1,$2,$3,$4,$5,0*
20,1,$1+$1,$4,$5,$6,$7,0*
20,1,$1+$1,$6,$7,$8,$9,0*
20,1,$1+$1,$8,$9,$2,$3,0*%
G04 Aperture macros list end*
%TA.AperFunction,CastellatedPad*%
%ADD10RoundRect,0.250000X0.750000X-0.250000X0.750000X0.250000X-0.750000X0.250000X-0.750000X-0.250000X0*%
%TD*%
%TA.AperFunction,ViaPad*%
%ADD11C,0.800000*%
%TD*%
%TA.AperFunction,Conductor*%
%ADD12C,0.200000*%
%TD*%
%TA.AperFunction,Conductor*%
%ADD13C,0.500000*%
%TD*%
G04 APERTURE END LIST*
D10*
%TO.P,J5,1,Pin_1*%
%TO.N,3V3*%
X90000000Y-79000000D03*
%TD*%
%TO.P,J7,1,Pin_1*%
%TO.N,unconnected-(J7-Pin_1-Pad1)*%
X90000000Y-83000000D03*
%TD*%
%TO.P,J9,1,Pin_1*%
%TO.N,GND*%
X106000000Y-71000000D03*
%TD*%
%TO.P,J3,1,Pin_1*%
%TO.N,unconnected-(J3-Pin_1-Pad1)*%
X90000000Y-75000000D03*
%TD*%
%TO.P,J16,1,Pin_1*%
%TO.N,GND*%
X106000000Y-85000000D03*
%TD*%
%TO.P,J6,1,Pin_1*%
%TO.N,INT*%
X90000000Y-81000000D03*
%TD*%
%TO.P,J12,1,Pin_1*%
%TO.N,CS*%
X106000000Y-77000000D03*
%TD*%
%TO.P,J2,1,Pin_1*%
%TO.N,GND*%
X90000000Y-73000000D03*
%TD*%
%TO.P,J11,1,Pin_1*%
%TO.N,NRST*%
X106000000Y-75000000D03*
%TD*%
%TO.P,J15,1,Pin_1*%
%TO.N,MISO*%
X106000000Y-83000000D03*
%TD*%
%TO.P,J4,1,Pin_1*%
%TO.N,unconnected-(J4-Pin_1-Pad1)*%
X90000000Y-77000000D03*
%TD*%
%TO.P,J14,1,Pin_1*%
%TO.N,MOSI*%
X106000000Y-81000000D03*
%TD*%
%TO.P,J1,1,Pin_1*%
%TO.N,ANT*%
X90000000Y-71000000D03*
%TD*%
%TO.P,J8,1,Pin_1*%
%TO.N,unconnected-(J8-Pin_1-Pad1)*%
X90000000Y-85000000D03*
%TD*%
%TO.P,J10,1,Pin_1*%
%TO.N,unconnected-(J10-Pin_1-Pad1)*%
X106000000Y-73000000D03*
%TD*%
%TO.P,J13,1,Pin_1*%
%TO.N,SCK*%
X106000000Y-79000000D03*
%TD*%
D11*
%TO.N,GND*%
X99200000Y-77100000D03*
X92000000Y-74600000D03*
X93800000Y-74500000D03*
X102300000Y-73100000D03*
X92800000Y-78000000D03*
X100100000Y-71300000D03*
X97800000Y-77100000D03*
X98700000Y-84000000D03*
X96700000Y-82400000D03*
%TO.N,INT*%
X96200000Y-79900000D03*
X92600000Y-82700000D03*
%TO.N,NRST*%
X97400000Y-74100000D03*
X94979499Y-76839694D03*
X94993869Y-75440757D03*
X99100000Y-74100000D03*
%TO.N,3V3*%
X96315712Y-80999803D03*
X95117500Y-82189499D03*
%TD*%
D12*
%TO.N,INT*%
X95400000Y-79900000D02*
X92600000Y-82700000D01*
X96200000Y-79900000D02*
X95400000Y-79900000D01*
%TO.N,NRST*%
X94979499Y-76839694D02*
X94979499Y-75455127D01*
X97400000Y-74100000D02*
X99100000Y-74100000D01*
X94979499Y-75455127D02*
X94993869Y-75440757D01*
D13*
%TO.N,3V3*%
X96315712Y-80999803D02*
X96307196Y-80999803D01*
X96307196Y-80999803D02*
X95117500Y-82189499D01*
%TD*%
%TA.AperFunction,Conductor*%
%TO.N,GND*%
G36*
X104450109Y-70520185D02*
G01*
X104495864Y-70572989D01*
X104506428Y-70637103D01*
X104500000Y-70700013D01*
X104500000Y-70750000D01*
X105365500Y-70750000D01*
X105432539Y-70769685D01*
X105478294Y-70822489D01*
X105489500Y-70874000D01*
X105489500Y-71126000D01*
X105469815Y-71193039D01*
X105417011Y-71238794D01*
X105365500Y-71250000D01*
X104500001Y-71250000D01*
X104500001Y-71299986D01*
X104510494Y-71402697D01*
X104565641Y-71569119D01*
X104565643Y-71569124D01*
X104657684Y-71718345D01*
X104781654Y-71842315D01*
X104930875Y-71934356D01*
X104930880Y-71934358D01*
X105088116Y-71986461D01*
X105145561Y-72026234D01*
X105172384Y-72090749D01*
X105160069Y-72159525D01*
X105112526Y-72210725D01*
X105094602Y-72219521D01*
X104977660Y-72265637D01*
X104977658Y-72265638D01*
X104857077Y-72357077D01*
X104765639Y-72477656D01*
X104710122Y-72618438D01*
X104704188Y-72667853D01*
X104699500Y-72706898D01*
X104699500Y-73293102D01*
X104700327Y-73299986D01*
X104710122Y-73381561D01*
X104765639Y-73522343D01*
X104857077Y-73642922D01*
X104977656Y-73734360D01*
X104977657Y-73734360D01*
X104977658Y-73734361D01*
X105118436Y-73789877D01*
X105206898Y-73800500D01*
X105365500Y-73800500D01*
X105432539Y-73820185D01*
X105478294Y-73872989D01*
X105489500Y-73924500D01*
X105489500Y-74075500D01*
X105469815Y-74142539D01*
X105417011Y-74188294D01*
X105365500Y-74199500D01*
X105206898Y-74199500D01*
X105167853Y-74204188D01*
X105118438Y-74210122D01*
X104977656Y-74265639D01*
X104857077Y-74357077D01*
X104765639Y-74477656D01*
X104710122Y-74618438D01*
X104704188Y-74667853D01*
X104699500Y-74706898D01*
X104699500Y-75293102D01*
X104705126Y-75339954D01*
X104710122Y-75381561D01*
X104765639Y-75522343D01*
X104857077Y-75642922D01*
X104977656Y-75734360D01*
X104977657Y-75734360D01*
X104977658Y-75734361D01*
X105118436Y-75789877D01*
X105206898Y-75800500D01*
X105365500Y-75800500D01*
X105432539Y-75820185D01*
X105478294Y-75872989D01*
X105489500Y-75924500D01*
X105489500Y-76075500D01*
X105469815Y-76142539D01*
X105417011Y-76188294D01*
X105365500Y-76199500D01*
X105206898Y-76199500D01*
X105167853Y-76204188D01*
X105118438Y-76210122D01*
X104977656Y-76265639D01*
X104857077Y-76357077D01*
X104765639Y-76477656D01*
X104710122Y-76618438D01*
X104704188Y-76667853D01*
X104699500Y-76706898D01*
X104699500Y-77293102D01*
X104701244Y-77307621D01*
X104710122Y-77381561D01*
X104765639Y-77522343D01*
X104857077Y-77642922D01*
X104977656Y-77734360D01*
X104977657Y-77734360D01*
X104977658Y-77734361D01*
X105118436Y-77789877D01*
X105206898Y-77800500D01*
X105365500Y-77800500D01*
X105432539Y-77820185D01*
X105478294Y-77872989D01*
X105489500Y-77924500D01*
X105489500Y-78075500D01*
X105469815Y-78142539D01*
X105417011Y-78188294D01*
X105365500Y-78199500D01*
X105206898Y-78199500D01*
X105167853Y-78204188D01*
X105118438Y-78210122D01*
X104977656Y-78265639D01*
X104857077Y-78357077D01*
X104765639Y-78477656D01*
X104710122Y-78618438D01*
X104704188Y-78667853D01*
X104699500Y-78706898D01*
X104699500Y-79293102D01*
X104702642Y-79319263D01*
X104710122Y-79381561D01*
X104765639Y-79522343D01*
X104857077Y-79642922D01*
X104977656Y-79734360D01*
X104977657Y-79734360D01*
X104977658Y-79734361D01*
X105118436Y-79789877D01*
X105206898Y-79800500D01*
X105365500Y-79800500D01*
X105432539Y-79820185D01*
X105478294Y-79872989D01*
X105489500Y-79924500D01*
X105489500Y-80075500D01*
X105469815Y-80142539D01*
X105417011Y-80188294D01*
X105365500Y-80199500D01*
X105206898Y-80199500D01*
X105167853Y-80204188D01*
X105118438Y-80210122D01*
X104977656Y-80265639D01*
X104857077Y-80357077D01*
X104765639Y-80477656D01*
X104710122Y-80618438D01*
X104704188Y-80667853D01*
X104699500Y-80706898D01*
X104699500Y-81293102D01*
X104703659Y-81327733D01*
X104710122Y-81381561D01*
X104765639Y-81522343D01*
X104857077Y-81642922D01*
X104977656Y-81734360D01*
X104977657Y-81734360D01*
X104977658Y-81734361D01*
X105118436Y-81789877D01*
X105206898Y-81800500D01*
X105365500Y-81800500D01*
X105432539Y-81820185D01*
X105478294Y-81872989D01*
X105489500Y-81924500D01*
X105489500Y-82075500D01*
X105469815Y-82142539D01*
X105417011Y-82188294D01*
X105365500Y-82199500D01*
X105206898Y-82199500D01*
X105167853Y-82204188D01*
X105118438Y-82210122D01*
X104977656Y-82265639D01*
X104857077Y-82357077D01*
X104765639Y-82477656D01*
X104710122Y-82618438D01*
X104704188Y-82667853D01*
X104699500Y-82706898D01*
X104699500Y-83293102D01*
X104705126Y-83339954D01*
X104710122Y-83381561D01*
X104710122Y-83381563D01*
X104710123Y-83381564D01*
X104727722Y-83426192D01*
X104765639Y-83522343D01*
X104857077Y-83642922D01*
X104977656Y-83734360D01*
X104977657Y-83734360D01*
X104977658Y-83734361D01*
X105094602Y-83780478D01*
X105149745Y-83823383D01*
X105172938Y-83889291D01*
X105156818Y-83957275D01*
X105106501Y-84005752D01*
X105088116Y-84013538D01*
X104930878Y-84065642D01*
X104930875Y-84065643D01*
X104781654Y-84157684D01*
X104657684Y-84281654D01*
X104565643Y-84430875D01*
X104565641Y-84430880D01*
X104510494Y-84597302D01*
X104510493Y-84597309D01*
X104500000Y-84700013D01*
X104500000Y-84750000D01*
X105365500Y-84750000D01*
X105432539Y-84769685D01*
X105478294Y-84822489D01*
X105489500Y-84874000D01*
X105489500Y-85126000D01*
X105469815Y-85193039D01*
X105417011Y-85238794D01*
X105365500Y-85250000D01*
X104500001Y-85250000D01*
X104500001Y-85299986D01*
X104507450Y-85372898D01*
X104494680Y-85441591D01*
X104446800Y-85492475D01*
X104384092Y-85509500D01*
X91414296Y-85509500D01*
X91347257Y-85489815D01*
X91301502Y-85437011D01*
X91291180Y-85370717D01*
X91299673Y-85299986D01*
X91300500Y-85293102D01*
X91300500Y-84706898D01*
X91289877Y-84618436D01*
X91234361Y-84477658D01*
X91234360Y-84477657D01*
X91234360Y-84477656D01*
X91142922Y-84357077D01*
X91022343Y-84265639D01*
X90881561Y-84210122D01*
X90835926Y-84204642D01*
X90793102Y-84199500D01*
X90793097Y-84199500D01*
X90624500Y-84199500D01*
X90557461Y-84179815D01*
X90511706Y-84127011D01*
X90500500Y-84075500D01*
X90500500Y-83924500D01*
X90520185Y-83857461D01*
X90572989Y-83811706D01*
X90624500Y-83800500D01*
X90793097Y-83800500D01*
X90793102Y-83800500D01*
X90881564Y-83789877D01*
X91022342Y-83734361D01*
X91142922Y-83642922D01*
X91234361Y-83522342D01*
X91289877Y-83381564D01*
X91300500Y-83293102D01*
X91300500Y-82706898D01*
X91299672Y-82700000D01*
X91894355Y-82700000D01*
X91914859Y-82868869D01*
X91914860Y-82868874D01*
X91975182Y-83027931D01*
X92037475Y-83118177D01*
X92071817Y-83167929D01*
X92177505Y-83261560D01*
X92199150Y-83280736D01*
X92349773Y-83359789D01*
X92349775Y-83359790D01*
X92514944Y-83400500D01*
X92685056Y-83400500D01*
X92850225Y-83359790D01*
X92929692Y-83318081D01*
X93000849Y-83280736D01*
X93000850Y-83280734D01*
X93000852Y-83280734D01*
X93128183Y-83167929D01*
X93224818Y-83027930D01*
X93285140Y-82868872D01*
X93305645Y-82700000D01*
X93297844Y-82635758D01*
X93309304Y-82566837D01*
X93333256Y-82533135D01*
X95497361Y-80369031D01*
X95558682Y-80335548D01*
X95628374Y-80340532D01*
X95667267Y-80363898D01*
X95671816Y-80367928D01*
X95671817Y-80367929D01*
X95729542Y-80419069D01*
X95731614Y-80420904D01*
X95768741Y-80480094D01*
X95767973Y-80549959D01*
X95751437Y-80584159D01*
X95690897Y-80671866D01*
X95690894Y-80671872D01*
X95630572Y-80830927D01*
X95630571Y-80830932D01*
X95626473Y-80864683D01*
X95598849Y-80928861D01*
X95591058Y-80937415D01*
X95066218Y-81462255D01*
X95008212Y-81494971D01*
X94867273Y-81529709D01*
X94716650Y-81608762D01*
X94589316Y-81721571D01*
X94492682Y-81861567D01*
X94432360Y-82020624D01*
X94432359Y-82020629D01*
X94411855Y-82189499D01*
X94432359Y-82358368D01*
X94432360Y-82358373D01*
X94492682Y-82517430D01*
X94502139Y-82531130D01*
X94589317Y-82657428D01*
X94695005Y-82751059D01*
X94716650Y-82770235D01*
X94867273Y-82849288D01*
X94867275Y-82849289D01*
X95032444Y-82889999D01*
X95202556Y-82889999D01*
X95367725Y-82849289D01*
X95447192Y-82807580D01*
X95518349Y-82770235D01*
X95518350Y-82770233D01*
X95518352Y-82770233D01*
X95645683Y-82657428D01*
X95742318Y-82517429D01*
X95802640Y-82358371D01*
X95807914Y-82314928D01*
X95835534Y-82250751D01*
X95843318Y-82242204D01*
X96355692Y-81729830D01*
X96413695Y-81697116D01*
X96565937Y-81659593D01*
X96662781Y-81608765D01*
X96716561Y-81580539D01*
X96716562Y-81580537D01*
X96716564Y-81580537D01*
X96843895Y-81467732D01*
X96940530Y-81327733D01*
X97000852Y-81168675D01*
X97021357Y-80999803D01*
X97000852Y-80830931D01*
X97000850Y-80830927D01*
X96940529Y-80671871D01*
X96856378Y-80549959D01*
X96843895Y-80531874D01*
X96843893Y-80531872D01*
X96784097Y-80478897D01*
X96746970Y-80419708D01*
X96747738Y-80349842D01*
X96764271Y-80315646D01*
X96824818Y-80227930D01*
X96885140Y-80068872D01*
X96905645Y-79900000D01*
X96885140Y-79731128D01*
X96824818Y-79572070D01*
X96824735Y-79571950D01*
X96737756Y-79445940D01*
X96728183Y-79432071D01*
X96600852Y-79319266D01*
X96600849Y-79319263D01*
X96450226Y-79240210D01*
X96285056Y-79199500D01*
X96114944Y-79199500D01*
X95949773Y-79240210D01*
X95799150Y-79319263D01*
X95671816Y-79432071D01*
X95662244Y-79445940D01*
X95607961Y-79489930D01*
X95560194Y-79499500D01*
X95336567Y-79499500D01*
X95315491Y-79506347D01*
X95296582Y-79510887D01*
X95274695Y-79514354D01*
X95254952Y-79524413D01*
X95236988Y-79531854D01*
X95215910Y-79538703D01*
X95215905Y-79538706D01*
X95197977Y-79551731D01*
X95181397Y-79561891D01*
X95161660Y-79571948D01*
X95161659Y-79571949D01*
X95139094Y-79594513D01*
X95139091Y-79594516D01*
X92770425Y-81963181D01*
X92709102Y-81996666D01*
X92682744Y-81999500D01*
X92514944Y-81999500D01*
X92349773Y-82040210D01*
X92199150Y-82119263D01*
X92071816Y-82232072D01*
X91975182Y-82372068D01*
X91914860Y-82531125D01*
X91914859Y-82531130D01*
X91894355Y-82700000D01*
X91299672Y-82700000D01*
X91289877Y-82618436D01*
X91234361Y-82477658D01*
X91234360Y-82477657D01*
X91234360Y-82477656D01*
X91142922Y-82357077D01*
X91022343Y-82265639D01*
X90881561Y-82210122D01*
X90835926Y-82204642D01*
X90793102Y-82199500D01*
X90793097Y-82199500D01*
X90624500Y-82199500D01*
X90557461Y-82179815D01*
X90511706Y-82127011D01*
X90500500Y-82075500D01*
X90500500Y-81924500D01*
X90520185Y-81857461D01*
X90572989Y-81811706D01*
X90624500Y-81800500D01*
X90793097Y-81800500D01*
X90793102Y-81800500D01*
X90881564Y-81789877D01*
X91022342Y-81734361D01*
X91142922Y-81642922D01*
X91234361Y-81522342D01*
X91289877Y-81381564D01*
X91300500Y-81293102D01*
X91300500Y-80706898D01*
X91289877Y-80618436D01*
X91234361Y-80477658D01*
X91234360Y-80477657D01*
X91234360Y-80477656D01*
X91142922Y-80357077D01*
X91022343Y-80265639D01*
X90881561Y-80210122D01*
X90835926Y-80204642D01*
X90793102Y-80199500D01*
X90793097Y-80199500D01*
X90624500Y-80199500D01*
X90557461Y-80179815D01*
X90511706Y-80127011D01*
X90500500Y-80075500D01*
X90500500Y-79924500D01*
X90520185Y-79857461D01*
X90572989Y-79811706D01*
X90624500Y-79800500D01*
X90793097Y-79800500D01*
X90793102Y-79800500D01*
X90881564Y-79789877D01*
X91022342Y-79734361D01*
X91142922Y-79642922D01*
X91234361Y-79522342D01*
X91289877Y-79381564D01*
X91300500Y-79293102D01*
X91300500Y-78706898D01*
X91289877Y-78618436D01*
X91234361Y-78477658D01*
X91234360Y-78477657D01*
X91234360Y-78477656D01*
X91142922Y-78357077D01*
X91022343Y-78265639D01*
X90881561Y-78210122D01*
X90835926Y-78204642D01*
X90793102Y-78199500D01*
X90793097Y-78199500D01*
X90624500Y-78199500D01*
X90557461Y-78179815D01*
X90511706Y-78127011D01*
X90500500Y-78075500D01*
X90500500Y-77924500D01*
X90520185Y-77857461D01*
X90572989Y-77811706D01*
X90624500Y-77800500D01*
X90793097Y-77800500D01*
X90793102Y-77800500D01*
X90881564Y-77789877D01*
X91022342Y-77734361D01*
X91142922Y-77642922D01*
X91234361Y-77522342D01*
X91289877Y-77381564D01*
X91300500Y-77293102D01*
X91300500Y-76839694D01*
X94273854Y-76839694D01*
X94294358Y-77008563D01*
X94294359Y-77008568D01*
X94354681Y-77167625D01*
X94416974Y-77257871D01*
X94451316Y-77307623D01*
X94557004Y-77401254D01*
X94578649Y-77420430D01*
X94729272Y-77499483D01*
X94729274Y-77499484D01*
X94894443Y-77540194D01*
X95064555Y-77540194D01*
X95229724Y-77499484D01*
X95309191Y-77457775D01*
X95380348Y-77420430D01*
X95380349Y-77420428D01*
X95380351Y-77420428D01*
X95507682Y-77307623D01*
X95604317Y-77167624D01*
X95664639Y-77008566D01*
X95685144Y-76839694D01*
X95664639Y-76670822D01*
X95604317Y-76511764D01*
X95507682Y-76371765D01*
X95491103Y-76357077D01*
X95421772Y-76295655D01*
X95384645Y-76236466D01*
X95379999Y-76202840D01*
X95379999Y-76090341D01*
X95399684Y-76023302D01*
X95421768Y-75997529D01*
X95522052Y-75908686D01*
X95618687Y-75768687D01*
X95679009Y-75609629D01*
X95699514Y-75440757D01*
X95679009Y-75271885D01*
X95618687Y-75112827D01*
X95522052Y-74972828D01*
X95394721Y-74860023D01*
X95394718Y-74860020D01*
X95244095Y-74780967D01*
X95078925Y-74740257D01*
X94908813Y-74740257D01*
X94743642Y-74780967D01*
X94593019Y-74860020D01*
X94465685Y-74972829D01*
X94369051Y-75112825D01*
X94308729Y-75271882D01*
X94308728Y-75271887D01*
X94288224Y-75440757D01*
X94308728Y-75609626D01*
X94308729Y-75609631D01*
X94369051Y-75768688D01*
X94430328Y-75857461D01*
X94465686Y-75908686D01*
X94537226Y-75972065D01*
X94574353Y-76031254D01*
X94578999Y-76064880D01*
X94578999Y-76202840D01*
X94559314Y-76269879D01*
X94537226Y-76295655D01*
X94451317Y-76371763D01*
X94354681Y-76511762D01*
X94294359Y-76670819D01*
X94294358Y-76670824D01*
X94273854Y-76839694D01*
X91300500Y-76839694D01*
X91300500Y-76706898D01*
X91289877Y-76618436D01*
X91234361Y-76477658D01*
X91234360Y-76477657D01*
X91234360Y-76477656D01*
X91142922Y-76357077D01*
X91022343Y-76265639D01*
X90881561Y-76210122D01*
X90835926Y-76204642D01*
X90793102Y-76199500D01*
X90793097Y-76199500D01*
X90624500Y-76199500D01*
X90557461Y-76179815D01*
X90511706Y-76127011D01*
X90500500Y-76075500D01*
X90500500Y-75924500D01*
X90520185Y-75857461D01*
X90572989Y-75811706D01*
X90624500Y-75800500D01*
X90793097Y-75800500D01*
X90793102Y-75800500D01*
X90881564Y-75789877D01*
X91022342Y-75734361D01*
X91142922Y-75642922D01*
X91234361Y-75522342D01*
X91289877Y-75381564D01*
X91300500Y-75293102D01*
X91300500Y-74706898D01*
X91289877Y-74618436D01*
X91234361Y-74477658D01*
X91234360Y-74477657D01*
X91234360Y-74477656D01*
X91142922Y-74357077D01*
X91022341Y-74265638D01*
X91022339Y-74265637D01*
X90905398Y-74219521D01*
X90850254Y-74176615D01*
X90827061Y-74110708D01*
X90829600Y-74100000D01*
X96694355Y-74100000D01*
X96714859Y-74268869D01*
X96714860Y-74268874D01*
X96775182Y-74427931D01*
X96837475Y-74518177D01*
X96871817Y-74567929D01*
X96977505Y-74661560D01*
X96999150Y-74680736D01*
X97112558Y-74740257D01*
X97149775Y-74759790D01*
X97314944Y-74800500D01*
X97485056Y-74800500D01*
X97650225Y-74759790D01*
X97751001Y-74706898D01*
X97800849Y-74680736D01*
X97800850Y-74680734D01*
X97800852Y-74680734D01*
X97928183Y-74567929D01*
X97937756Y-74554059D01*
X97992039Y-74510070D01*
X98039806Y-74500500D01*
X98460194Y-74500500D01*
X98527233Y-74520185D01*
X98562244Y-74554060D01*
X98571816Y-74567928D01*
X98699150Y-74680736D01*
X98812558Y-74740257D01*
X98849775Y-74759790D01*
X99014944Y-74800500D01*
X99185056Y-74800500D01*
X99350225Y-74759790D01*
X99451001Y-74706898D01*
X99500849Y-74680736D01*
X99500850Y-74680734D01*
X99500852Y-74680734D01*
X99628183Y-74567929D01*
X99724818Y-74427930D01*
X99785140Y-74268872D01*
X99805645Y-74100000D01*
X99785140Y-73931128D01*
X99724818Y-73772070D01*
X99698788Y-73734360D01*
X99668120Y-73689930D01*
X99628183Y-73632071D01*
X99533316Y-73548026D01*
X99500849Y-73519263D01*
X99350226Y-73440210D01*
X99185056Y-73399500D01*
X99014944Y-73399500D01*
X98849773Y-73440210D01*
X98699150Y-73519263D01*
X98571816Y-73632071D01*
X98562244Y-73645940D01*
X98507961Y-73689930D01*
X98460194Y-73699500D01*
X98039806Y-73699500D01*
X97972767Y-73679815D01*
X97937756Y-73645940D01*
X97928183Y-73632071D01*
X97800849Y-73519263D01*
X97650226Y-73440210D01*
X97485056Y-73399500D01*
X97314944Y-73399500D01*
X97149773Y-73440210D01*
X96999150Y-73519263D01*
X96871816Y-73632072D01*
X96775182Y-73772068D01*
X96714860Y-73931125D01*
X96714859Y-73931130D01*
X96694355Y-74100000D01*
X90829600Y-74100000D01*
X90843182Y-74042723D01*
X90893499Y-73994247D01*
X90911884Y-73986461D01*
X91069119Y-73934358D01*
X91069124Y-73934356D01*
X91218345Y-73842315D01*
X91342315Y-73718345D01*
X91434356Y-73569124D01*
X91434358Y-73569119D01*
X91489505Y-73402697D01*
X91489506Y-73402690D01*
X91499999Y-73299986D01*
X91500000Y-73299973D01*
X91500000Y-73250000D01*
X90624500Y-73250000D01*
X90557461Y-73230315D01*
X90511706Y-73177511D01*
X90500500Y-73126000D01*
X90500500Y-72874000D01*
X90520185Y-72806961D01*
X90572989Y-72761206D01*
X90624500Y-72750000D01*
X91499999Y-72750000D01*
X91499999Y-72700028D01*
X91499998Y-72700013D01*
X91489505Y-72597302D01*
X91434358Y-72430880D01*
X91434356Y-72430875D01*
X91342315Y-72281654D01*
X91218345Y-72157684D01*
X91069124Y-72065643D01*
X91069119Y-72065641D01*
X90911883Y-72013538D01*
X90854438Y-71973765D01*
X90827615Y-71909249D01*
X90839930Y-71840473D01*
X90887473Y-71789274D01*
X90905387Y-71780482D01*
X91022342Y-71734361D01*
X91142922Y-71642922D01*
X91234361Y-71522342D01*
X91289877Y-71381564D01*
X91300500Y-71293102D01*
X91300500Y-70706898D01*
X91292380Y-70639282D01*
X91303932Y-70570376D01*
X91350904Y-70518652D01*
X91415496Y-70500500D01*
X104383070Y-70500500D01*
X104450109Y-70520185D01*
G37*
%TD.AperFunction*%
%TD*%
M02*
